<svg xmlns="http://www.w3.org/2000/svg" viewBox="0 0 144.213 33.485"><g fill="#272733"><path d="M22.774 17.786a7.562 7.562 0 0 1 3.614-6.366 7.838 7.838 0 0 0-6.118-3.327c-2.609-.263-5.094 1.539-6.413 1.539s-3.366-1.5-5.525-1.453a8.2 8.2 0 0 0-6.93 4.193C-1.55 17.496.644 25.09 3.527 29.245c1.4 2.034 3.079 4.318 5.279 4.237 2.125-.082 2.926-1.371 5.491-1.371s3.284 1.371 5.529 1.336c2.28-.048 3.728-2.082 5.12-4.116a18.57 18.57 0 0 0 2.321-4.767 7.386 7.386 0 0 1-4.493-6.778zM18.557 5.344A7.343 7.343 0 0 0 20.3 0a7.5 7.5 0 0 0-4.928 2.534 7.015 7.015 0 0 0-1.78 5.185 6.214 6.214 0 0 0 4.965-2.375z"/></g><g fill="#272733"><path d="m49.76 25.297 5.568-15.272h1.932l5.523 15.272h-2.091l-1.545-4.3h-5.954l-1.522 4.3zm6.34-12.59-2.318 6.59h4.75l-2.363-6.59zM64.622 28.683V14.002h1.841v.909h.114a5.082 5.082 0 0 1 6.579.148 5.765 5.765 0 0 1 1.284 4.193v.3a6.421 6.421 0 0 1-1.329 4.466 4.857 4.857 0 0 1-3.761 1.443 5.222 5.222 0 0 1-2.8-.727v3.954zm4.568-4.8q3.273 0 3.273-4.068v-.5a4.558 4.558 0 0 0-.773-3.034 3.068 3.068 0 0 0-2.386-.852 4.456 4.456 0 0 0-2.75.773v6.909a3.964 3.964 0 0 0 2.636.777zM76.894 28.683V14.002h1.841v.909h.114a5.082 5.082 0 0 1 6.579.148 5.766 5.766 0 0 1 1.284 4.193v.3a6.42 6.42 0 0 1-1.33 4.466 4.857 4.857 0 0 1-3.761 1.443 5.222 5.222 0 0 1-2.8-.727v3.954zm4.568-4.8q3.273 0 3.273-4.068v-.5a4.558 4.558 0 0 0-.773-3.034 3.068 3.068 0 0 0-2.386-.852 4.457 4.457 0 0 0-2.75.773v6.909a3.964 3.964 0 0 0 2.636.777zM104.101 24.376a5.473 5.473 0 0 1-3.863 1.193 8.894 8.894 0 0 1-4.387-1v-1.7a9.157 9.157 0 0 0 4.273 1q3.2 0 3.2-2.636a2.3 2.3 0 0 0-.523-1.614 4.724 4.724 0 0 0-1.886-1.046l-1.591-.523a5.424 5.424 0 0 1-2.466-1.511 3.928 3.928 0 0 1-.829-2.647 3.826 3.826 0 0 1 1.25-2.989 5.19 5.19 0 0 1 3.59-1.125 8.045 8.045 0 0 1 3.727.841v1.682a9.15 9.15 0 0 0-3.8-.818 3.157 3.157 0 0 0-2.034.579 2 2 0 0 0-.716 1.648 2.469 2.469 0 0 0 .443 1.59 3.607 3.607 0 0 0 1.647.955l1.568.523a6.467 6.467 0 0 1 2.75 1.545 3.837 3.837 0 0 1 .909 2.75 4.311 4.311 0 0 1-1.262 3.303zM111.488 25.411q-3.046 0-3.046-2.773v-7.022h-1.613v-1.614h1.613V11.32h1.935v2.682h2.841v1.614h-2.841v6.75a1.526 1.526 0 0 0 .352 1.148 1.894 1.894 0 0 0 1.284.329 5.9 5.9 0 0 0 1.432-.181v1.318a4.911 4.911 0 0 1-1.957.431zM120.1 25.501a4.849 4.849 0 0 1-3.783-1.488 5.908 5.908 0 0 1-1.352-4.125v-.386a5.969 5.969 0 0 1 1.409-4.182 5.436 5.436 0 0 1 7.545-.046 5.957 5.957 0 0 1 1.364 4.159v.363a5.9 5.9 0 0 1-1.42 4.17 4.883 4.883 0 0 1-3.763 1.535zm.046-1.591a2.777 2.777 0 0 0 2.307-1.011 4.551 4.551 0 0 0 .807-2.9v-.614q0-4.022-3.182-4.023a2.773 2.773 0 0 0-2.3 1.023 4.555 4.555 0 0 0-.818 2.909v.636q.005 3.981 3.186 3.98zM127.646 25.297V14.002h1.841v1.251h.114a3.66 3.66 0 0 1 1.329-.989 4.07 4.07 0 0 1 1.739-.4 2.038 2.038 0 0 1 .7.09v1.728a6.124 6.124 0 0 0-.864-.068 5.23 5.23 0 0 0-2.931.864v8.817zM140.054 25.501a5.148 5.148 0 0 1-4.011-1.511 5.965 5.965 0 0 1-1.375-4.17v-.341a5.838 5.838 0 0 1 1.421-4.249 4.765 4.765 0 0 1 3.556-1.455q4.568 0 4.568 5.34v1.091h-7.545a3.272 3.272 0 0 0 3.7 3.636 7.3 7.3 0 0 0 3.5-.863v1.432a6.142 6.142 0 0 1-3.814 1.09zm-.5-10.158a2.781 2.781 0 0 0-1.943.761 3.644 3.644 0 0 0-.943 2.534h5.5a3.933 3.933 0 0 0-.647-2.511 2.4 2.4 0 0 0-1.967-.784z"/></g></svg>