<svg xmlns="http://www.w3.org/2000/svg" viewBox="0 0 144.176 31.975"><defs><linearGradient id="a" x1=".915" x2="-.383" y1="6.614" y2="5.945" gradientUnits="objectBoundingBox"><stop offset="0" stop-color="#00a0ff"/><stop offset=".007" stop-color="#00a1ff"/><stop offset=".26" stop-color="#00beff"/><stop offset=".512" stop-color="#00d2ff"/><stop offset=".76" stop-color="#00dfff"/><stop offset="1" stop-color="#00e3ff"/></linearGradient><linearGradient id="b" x1="1.076" x2="-1.305" y1="17.098" y2="17.098" gradientUnits="objectBoundingBox"><stop offset="0" stop-color="#ffe000"/><stop offset=".409" stop-color="#ffbd00"/><stop offset=".775" stop-color="orange"/><stop offset="1" stop-color="#ff9c00"/></linearGradient><linearGradient id="c" x1=".894" x2="0" y1=".155" y2="1" gradientUnits="objectBoundingBox"><stop offset="0" stop-color="#ff3a44"/><stop offset=".26" stop-color="#ef2f4c"/><stop offset="1" stop-color="#c31162"/></linearGradient><linearGradient id="d" x1="-.188" x2=".421" y1="13.583" y2="12.793" gradientUnits="objectBoundingBox"><stop offset="0" stop-color="#32a071"/><stop offset=".068" stop-color="#2da771"/><stop offset=".476" stop-color="#15cf74"/><stop offset=".801" stop-color="#06e775"/><stop offset="1" stop-color="#00f076"/></linearGradient></defs><path fill="#272733" d="M72.468 13.857a5.287 5.287 0 1 0 5.307 5.287 5.211 5.211 0 0 0-5.307-5.287zm0 8.491a3.212 3.212 0 1 1 2.984-3.2 3.059 3.059 0 0 1-2.984 3.196zM60.89 13.857a5.287 5.287 0 1 0 5.307 5.287 5.212 5.212 0 0 0-5.307-5.287zm0 8.491a3.212 3.212 0 1 1 2.984-3.2 3.059 3.059 0 0 1-2.984 3.196zm-13.772-6.873v2.243h5.366a4.681 4.681 0 0 1-1.221 2.823 5.5 5.5 0 0 1-4.146 1.642 5.968 5.968 0 0 1 0-11.935 5.718 5.718 0 0 1 4.045 1.6l1.582-1.58a7.826 7.826 0 0 0-5.628-2.264 8.212 8.212 0 1 0 0 16.423 7.5 7.5 0 0 0 5.727-2.3 7.412 7.412 0 0 0 1.943-5.247 7.246 7.246 0 0 0-.121-1.4zm56.326 1.742a4.914 4.914 0 0 0-4.526-3.364 5.024 5.024 0 0 0-4.986 5.287 5.174 5.174 0 0 0 5.247 5.287 5.258 5.258 0 0 0 4.406-2.343l-1.8-1.2a3.02 3.02 0 0 1-2.6 1.462 2.691 2.691 0 0 1-2.565-1.6l7.07-2.925zm-7.21 1.763a2.9 2.9 0 0 1 2.764-3.084 2.045 2.045 0 0 1 1.963 1.121zm-5.747 5.127h2.322V8.565h-2.322zm-3.807-9.073h-.08a3.665 3.665 0 0 0-2.785-1.177 5.292 5.292 0 0 0 0 10.574 3.6 3.6 0 0 0 2.783-1.2h.08v.762c0 2.023-1.08 3.1-2.823 3.1a2.926 2.926 0 0 1-2.664-1.883l-2.023.842a5.038 5.038 0 0 0 4.687 3.124c2.724 0 5.027-1.6 5.027-5.507v-9.496h-2.2zm-2.663 7.31a3.216 3.216 0 0 1 0-6.408 2.979 2.979 0 0 1 2.822 3.221 2.953 2.953 0 0 1-2.823 3.187zm30.309-13.778h-5.558v15.541h2.318v-5.888h3.24a4.834 4.834 0 1 0 0-9.653zm.06 7.49h-3.3v-5.327h3.3a2.664 2.664 0 1 1 0 5.327zm14.336-2.231a4.357 4.357 0 0 0-4.14 2.378l2.06.86a2.2 2.2 0 0 1 2.12-1.14 2.233 2.233 0 0 1 2.439 2v.159a5.131 5.131 0 0 0-2.419-.6c-2.219 0-4.479 1.22-4.479 3.5a3.591 3.591 0 0 0 3.859 3.42 3.273 3.273 0 0 0 2.96-1.52h.08v1.2h2.239v-5.96c-.003-2.759-2.061-4.298-4.721-4.298zm-.28 8.517c-.761 0-1.82-.379-1.82-1.319 0-1.2 1.319-1.66 2.459-1.66a4.138 4.138 0 0 1 2.12.52 2.812 2.812 0 0 1-2.757 2.458zm13.155-8.177-2.659 6.738h-.08l-2.76-6.738h-2.5l4.138 9.417-2.36 5.239h2.419l6.379-14.656zm-20.895 9.942h2.32V8.566h-2.32z"/><path fill="url(#a)" d="M20.547 17.556a2.5 2.5 0 0 0-.574 1.747V46.8a2.493 2.493 0 0 0 .574 1.747l.092.09 15.4-15.4v-.363l-15.4-15.4z" transform="translate(-19.973 -17.062)"/><path fill="url(#b)" d="M38.032 36.359 32.9 31.222v-.363l5.135-5.135.116.067 6.083 3.456c1.737.987 1.737 2.6 0 3.589l-6.083 3.456z" transform="translate(-16.83 -15.053)"/><path fill="url(#c)" d="M41.179 35.252 35.928 30 20.435 45.494a2.023 2.023 0 0 0 2.585.076l18.16-10.318" transform="translate(-19.861 -14.013)"/><path fill="url(#d)" d="M41.179 27.877 23.02 17.559a2.023 2.023 0 0 0-2.585.076l15.493 15.493z" transform="translate(-19.861 -17.14)"/><g fill="#3c66db"><path fill-opacity=".2;" d="M41.064 34.132 23.02 44.384a2.07 2.07 0 0 1-2.491.014l-.093.092.092.091a2.07 2.07 0 0 0 2.491-.014l18.16-10.318z" style="isolation:isolate" transform="translate(-19.861 -13.009)"/><path d="M.574 31.3A2.493 2.493 0 0 1 0 29.553v.187a2.489 2.489 0 0 0 .574 1.745l.093-.092z" opacity=".12;isolation:isolate"/></g><path fill="#3c66db" d="m27.401 17.602-6.2 3.522.116.116 6.084-3.453a2.182 2.182 0 0 0 1.3-1.8 2.313 2.313 0 0 1-1.3 1.615z" opacity=".12;isolation:isolate"/><path fill="#fff" fill-opacity=".25;isolation:isolate" d="m3.159.6 24.243 13.774a2.313 2.313 0 0 1 1.3 1.614 2.179 2.179 0 0 0-1.3-1.8L3.159.419C1.421-.568 0 .252 0 2.241v.183C0 .434 1.421-.387 3.159.6z"/></svg>