<svg xmlns="http://www.w3.org/2000/svg" xmlns:xlink="http://www.w3.org/1999/xlink" width="225.919" height="71.931" viewBox="0 0 225.919 71.931">
  <defs>
    <linearGradient id="linear-gradient" x1="-0.028" y1="0.5" x2="8.458" y2="0.5" gradientUnits="objectBoundingBox">
      <stop offset="0" stop-color="#45a735"/>
      <stop offset="0.95" stop-color="#009cdc"/>
    </linearGradient>
    <linearGradient id="linear-gradient-2" x1="-4.429" y1="0.5" x2="4.057" y2="0.5" xlink:href="#linear-gradient"/>
    <linearGradient id="linear-gradient-3" x1="-3.656" y1="0.5" x2="13.317" y2="0.5" xlink:href="#linear-gradient"/>
    <linearGradient id="linear-gradient-4" x1="-4.656" y1="0.5" x2="12.317" y2="0.5" xlink:href="#linear-gradient"/>
    <linearGradient id="linear-gradient-5" x1="-1.828" y1="0.5" x2="6.658" y2="0.5" xlink:href="#linear-gradient"/>
    <linearGradient id="linear-gradient-7" x1="-3.07" y1="0.5" x2="18.146" y2="0.5" xlink:href="#linear-gradient"/>
    <linearGradient id="linear-gradient-8" x1="-17.32" y1="0.5" x2="3.895" y2="0.5" xlink:href="#linear-gradient"/>
    <linearGradient id="linear-gradient-9" x1="-0.428" y1="0.5" x2="8.058" y2="0.5" xlink:href="#linear-gradient"/>
    <linearGradient id="linear-gradient-11" x1="-7.528" y1="0.5" x2="0.958" y2="0.5" xlink:href="#linear-gradient"/>
    <linearGradient id="linear-gradient-13" x1="-3.129" y1="0.5" x2="5.357" y2="0.5" xlink:href="#linear-gradient"/>
    <linearGradient id="linear-gradient-15" x1="-5.728" y1="0.5" x2="2.758" y2="0.5" xlink:href="#linear-gradient"/>
    <linearGradient id="linear-gradient-16" x1="0.703" y1="0.218" x2="-0.907" y2="1.969" xlink:href="#linear-gradient"/>
    <linearGradient id="linear-gradient-17" x1="2.138" y1="-1.272" x2="0.111" y2="0.921" xlink:href="#linear-gradient"/>
  </defs>
  <g id="알뜰교통카드_플러스_모바일" data-name="알뜰교통카드 플러스_모바일" transform="translate(-139.482 -208.025)">
    <g id="그룹_19394" data-name="그룹 19394" transform="translate(139.482 223.866)">
      <g id="그룹_19393" data-name="그룹 19393">
        <g id="그룹_19392" data-name="그룹 19392">
          <path id="패스_43806" data-name="패스 43806" d="M150.147,274.863A10.663,10.663,0,1,1,160.809,264.2,10.677,10.677,0,0,1,150.147,274.863Zm0-17.383a6.72,6.72,0,1,0,6.717,6.719A6.726,6.726,0,0,0,150.147,257.48Z" transform="translate(-139.482 -253.537)" fill="url(#linear-gradient)"/>
          <path id="패스_43807" data-name="패스 43807" d="M424.9,374.738a10.663,10.663,0,1,1,10.663-10.664A10.675,10.675,0,0,1,424.9,374.738Zm0-17.383a6.719,6.719,0,1,0,6.719,6.719A6.726,6.726,0,0,0,424.9,357.355Z" transform="translate(-318.605 -318.648)" fill="url(#linear-gradient-2)"/>
          <path id="패스_43808" data-name="패스 43808" d="M260.355,275.094a1.865,1.865,0,0,1-.461-.058,10.665,10.665,0,0,1,0-20.681,1.876,1.876,0,0,1,.459-.057,2,2,0,0,1,1.949,1.989,1.926,1.926,0,0,1-1.4,1.884,6.72,6.72,0,0,0,0,13.05,1.927,1.927,0,0,1,1.4,1.885,1.992,1.992,0,0,1-.583,1.411A1.923,1.923,0,0,1,260.355,275.094Z" transform="translate(-212.733 -254.032)" fill="url(#linear-gradient-3)"/>
          <path id="패스_43809" data-name="패스 43809" d="M291.567,275.094a1.862,1.862,0,0,1-.461-.058,10.665,10.665,0,0,1,0-20.681,1.875,1.875,0,0,1,.459-.057,2,2,0,0,1,1.949,1.989,1.926,1.926,0,0,1-1.405,1.884,6.721,6.721,0,0,0,0,13.05,1.927,1.927,0,0,1,1.405,1.885,1.992,1.992,0,0,1-.583,1.411A1.924,1.924,0,0,1,291.567,275.094Z" transform="translate(-233.081 -254.032)" fill="url(#linear-gradient-4)"/>
          <path id="패스_43810" data-name="패스 43810" d="M253.815,332.389a1.971,1.971,0,1,1,0-3.942H271.2a1.971,1.971,0,1,1,0,3.942Z" transform="translate(-212.733 -302.373)" fill="url(#linear-gradient-5)"/>
          <path id="패스_43811" data-name="패스 43811" d="M416.21,283.553a1.971,1.971,0,1,1,0-3.942h6.72v-4.946l-.161-.033a10.657,10.657,0,0,1,2.132-21.1h8.692a1.972,1.972,0,0,1,0,3.944h-8.687a6.54,6.54,0,0,0-6.1,3.8c-.093.214-.162.427-.231.639l-.086.264.263.04h14.843a1.972,1.972,0,0,1,0,3.944h-15.12l.1.267a6.736,6.736,0,0,0,6.331,4.48h8.692a1.972,1.972,0,0,1,0,3.944h-6.72v4.748h6.72a1.971,1.971,0,1,1,0,3.942Z" transform="translate(-318.604 -253.537)" fill="url(#linear-gradient-2)"/>
          <path id="패스_43812" data-name="패스 43812" d="M216.363,274.863a1.975,1.975,0,0,1-1.972-1.972V255.509a1.972,1.972,0,0,1,3.945,0v6.718h2.373a1.973,1.973,0,0,1,0,3.945h-2.373v6.718A1.975,1.975,0,0,1,216.363,274.863Z" transform="translate(-188.317 -253.537)" fill="url(#linear-gradient-7)"/>
          <path id="패스_43813" data-name="패스 43813" d="M572.178,274.863a1.976,1.976,0,0,1-1.973-1.972V255.509a1.973,1.973,0,0,1,3.945,0v6.718h2.373a1.973,1.973,0,1,1,0,3.945H574.15v6.718A1.975,1.975,0,0,1,572.178,274.863Z" transform="translate(-420.283 -253.537)" fill="url(#linear-gradient-8)"/>
          <path id="패스_43814" data-name="패스 43814" d="M170.773,349.772a6.318,6.318,0,0,1-5.93-4.213,5.931,5.931,0,0,1,0-4.211,6.319,6.319,0,0,1,5.93-4.211h8.7a2.373,2.373,0,0,0,0-4.747H166.428a1.971,1.971,0,1,1,0-3.942h13.035a6.317,6.317,0,0,1,5.929,4.211,5.888,5.888,0,0,1,0,4.21,6.318,6.318,0,0,1-5.929,4.212h-8.7a2.374,2.374,0,0,0,0,4.747h13.043a1.972,1.972,0,1,1,0,3.944Z" transform="translate(-155.763 -302.373)" fill="url(#linear-gradient-9)"/>
          <path id="패스_43815" data-name="패스 43815" d="M258.159,374.738a6.317,6.317,0,0,1-5.928-4.214,5.886,5.886,0,0,1,0-4.209,6.317,6.317,0,0,1,5.928-4.212h8.7a2.373,2.373,0,0,0,0-4.746H253.815a1.973,1.973,0,1,1,0-3.945h13.036a6.318,6.318,0,0,1,5.929,4.213,5.91,5.91,0,0,1,0,4.209,6.319,6.319,0,0,1-5.929,4.213h-8.7a2.373,2.373,0,0,0,0,4.746H271.2a1.973,1.973,0,0,1,0,3.945Z" transform="translate(-212.733 -318.648)" fill="url(#linear-gradient-5)"/>
          <path id="패스_43816" data-name="패스 43816" d="M609.636,332.389a1.971,1.971,0,1,1,0-3.942h17.383a1.971,1.971,0,1,1,0,3.942Z" transform="translate(-444.704 -302.373)" fill="url(#linear-gradient-11)"/>
          <path id="패스_43817" data-name="패스 43817" d="M618.323,274.863a10.663,10.663,0,0,1,0-21.326h8.693a1.972,1.972,0,0,1,0,3.944h-8.687a6.542,6.542,0,0,0-6.1,3.8,6.866,6.866,0,0,0,.48,6.6,6.709,6.709,0,0,0,5.617,3.036h8.693a1.972,1.972,0,0,1,0,3.944Z" transform="translate(-444.701 -253.537)" fill="url(#linear-gradient-11)"/>
          <path id="패스_43818" data-name="패스 43818" d="M339.409,307.969a6.318,6.318,0,0,1-5.929-4.211,6.224,6.224,0,0,1-.388-2.106v-8.691a1.972,1.972,0,1,1,3.944,0v8.691a2.379,2.379,0,0,0,2.366,2.375h2.38V292.961a1.973,1.973,0,0,1,3.945,0v11.066h6.717a1.971,1.971,0,1,1,0,3.942Z" transform="translate(-265.702 -277.952)" fill="url(#linear-gradient-13)"/>
          <path id="패스_43819" data-name="패스 43819" d="M352.445,274.863a1.975,1.975,0,0,1-1.972-1.972V259.854a2.378,2.378,0,0,0-2.367-2.373H335.064a1.972,1.972,0,1,1,0-3.944H348.1a6.318,6.318,0,0,1,5.93,4.212,6.192,6.192,0,0,1,.389,2.105v13.036A1.975,1.975,0,0,1,352.445,274.863Z" transform="translate(-265.702 -253.537)" fill="url(#linear-gradient-13)"/>
          <path id="패스_43820" data-name="패스 43820" d="M514.657,274.863a1.975,1.975,0,0,1-1.973-1.972v-6.718H497.277a1.973,1.973,0,1,1,0-3.945h15.408v-2.373a2.377,2.377,0,0,0-2.367-2.373H497.277a1.972,1.972,0,1,1,0-3.944h13.034a6.318,6.318,0,0,1,5.93,4.212,6.2,6.2,0,0,1,.389,2.105v13.036A1.975,1.975,0,0,1,514.657,274.863Z" transform="translate(-371.453 -253.537)" fill="url(#linear-gradient-15)"/>
        </g>
      </g>
    </g>
    <g id="그룹_19395" data-name="그룹 19395" transform="translate(330.825 208.025)">
      <path id="패스_43821" data-name="패스 43821" d="M701.232,242.568h-6.76a5.281,5.281,0,0,0-5.264,5.265h0a5.278,5.278,0,0,0,5.264,5.264h6.76v6.76a5.278,5.278,0,0,0,5.264,5.264h0a5.278,5.278,0,0,0,5.265-5.264V253.1H706.5a5.287,5.287,0,0,1-5.264-5.264Z" transform="translate(-689.209 -230.545)" fill-rule="evenodd" fill="url(#linear-gradient-16)"/>
      <path id="패스_43822" data-name="패스 43822" d="M720.77,242.568h-1.592v5.265a6.878,6.878,0,0,0,6.856,6.857H731.3V253.1h-5.265a5.287,5.287,0,0,1-5.264-5.264Z" transform="translate(-708.747 -230.545)" fill="#1a1818" fill-rule="evenodd" opacity="0.2" style="mix-blend-mode: multiply;isolation: isolate"/>
      <path id="패스_43823" data-name="패스 43823" d="M734.281,220.048v-6.759a5.282,5.282,0,0,0-5.265-5.264h0a5.281,5.281,0,0,0-5.264,5.264v12.024a5.287,5.287,0,0,0,5.264,5.264H741.04a5.276,5.276,0,0,0,5.264-5.264h0a5.279,5.279,0,0,0-5.264-5.265Z" transform="translate(-711.729 -208.025)" fill-rule="evenodd" fill="url(#linear-gradient-17)"/>
    </g>
  </g>
</svg>
