<svg xmlns="http://www.w3.org/2000/svg" viewBox="0 0 197.711 33.204"><defs/><g id="그룹_4010" opacity=".4"><g id="그룹_4006"><path id="합치기_33" fill="#272733" d="M14.931-99.8a15.549 15.549 0 0 0 8.621-13.933 14.111 14.111 0 0 0-14.107-14.109c-5.755 0-11.355 3.875-11.355 9.467a5.035 5.035 0 0 0 .155 1.207v.011c.005.027.015.051.02.075s.011.039.017.063A6.03 6.03 0 0 0 4.1-112.6a6.023 6.023 0 0 0 5.011-2.767 5.986 5.986 0 0 1 3.879-2.733 5.986 5.986 0 0 1 4.644.945 6.6 6.6 0 0 1 2.256 7.955 13.744 13.744 0 0 1-13.347 8.983c-8.45 0-14.542-7.23-14.542-15.676A17.109 17.109 0 0 1 9.108-133 17.117 17.117 0 0 1 25.3-121.443l.061.183a15.134 15.134 0 0 0-13.972-9.623 14.4 14.4 0 0 0-8.636 2.783 14.4 14.4 0 0 1 8.633-2.782 15.082 15.082 0 0 1 14.078 9.956 16.9 16.9 0 0 1 .755 5.035A17.116 17.116 0 0 1 14.931-99.8Z" transform="translate(8 133)"/></g><g id="그룹_4008" transform="translate(45.885 3.66)"><path id="패스_7242" d="M209.009 212.781v3.471h-1.24v-2.388h-6.549v-1.083h3.336v-1.461H200.6v-1.084h9.149v1.083h-3.965v1.461Zm0-6.3v2.968h-1.24v-1.874h-6.438v-1.093Z" class="cls-3" transform="translate(-200.6 -206.389)"/><path id="패스_7243" d="M247.745 213.422h-3.233v1.811h3.961v1.082h-9.152v-1.086h3.95v-1.811h-3.211V207.6h7.665v1.082h-6.449v1.294h6.449v1.056h-6.449v1.305h6.471Z" class="cls-3" transform="translate(-228.904 -207.208)"/><path id="패스_7244" d="M280.224 215.228v-3.094h1.171v3.094h1.66v-3.094h1.182v3.094h2.957v1.082h-9.145v-1.082Zm5-1.751V208.7h-6.438v-1.1h7.679v5.88Z" class="cls-3" transform="translate(-257.211 -207.208)"/><path id="패스_7245" d="M325.5 211.724h-9.149v-1.015h3.961v-.647h-3.224v-3.916h7.665v1.016h-6.459v.491h6.459v.926h-6.459v.5h6.481v.981h-3.245v.647h3.97Zm-2.131 2.443a2.044 2.044 0 0 1-.195.881 2.34 2.34 0 0 1-.519.715 2.617 2.617 0 0 1-.77.5 2.377 2.377 0 0 1-.936.184 2.415 2.415 0 0 1-.943-.184 2.6 2.6 0 0 1-.776-.5 2.307 2.307 0 0 1-.518-.715 2.021 2.021 0 0 1-.2-.881 1.991 1.991 0 0 1 .2-.876 2.326 2.326 0 0 1 .518-.709 2.6 2.6 0 0 1 .776-.5 2.415 2.415 0 0 1 .943-.184 2.378 2.378 0 0 1 .936.184 2.607 2.607 0 0 1 .77.5 2.357 2.357 0 0 1 .519.709 2.012 2.012 0 0 1 .195.876m-1.193-.011a1.193 1.193 0 0 0-.358-.865 1.175 1.175 0 0 0-.869-.362 1.192 1.192 0 0 0-.876.362 1.179 1.179 0 0 0-.363.865 1.16 1.16 0 0 0 .363.86 1.2 1.2 0 0 0 .876.357 1.219 1.219 0 0 0 1.227-1.216" class="cls-3" transform="translate(-285.207 -206.146)"/><path id="패스_7246" d="M354.866 212.453h9.149v1.093h-3.961v2.566h-1.238v-2.566h-3.95Zm1.952-4.863h5.232v-1.261h1.228v4.787H355.6v-4.787h1.216Zm5.232 1.071h-5.232v1.373h5.232Z" class="cls-3" transform="translate(-313.358 -206.279)"/></g><g id="그룹_4007" transform="translate(46.636 16.971)"><path id="패스_7247" d="M163.029 553.4h5.614v1.467h-3.952v7.773h4.116v1.452h-5.778Zm10.119-.823h1.585v13.357h-1.585V559.5h-1.781v6.362h-1.557V552.6h1.557v5.479h1.781Z" class="cls-3" transform="translate(-163.029 -552.408)"/><path id="패스_7248" d="M198.914 561.234v-6.9h10.3v1.452h-8.653v4h8.683v1.453h-4.356v3.307h5.312v1.467h-12.275v-1.467h5.3v-3.307Z" class="cls-3" transform="translate(-184.213 -553.472)"/><path id="패스_7249" d="m237.078 552.671 4.371 10.791-1.482.644-2.889-7.32-2.874 7.425-1.5-.659Zm5.988-.09h1.66v13.357h-1.66Z" class="cls-3" transform="translate(-205.328 -552.408)"/><path id="패스_7250" d="M277.814 560.049h-3.532v2.29h-1.66v-2.29h-3.682v-1.467h8.874Zm-2.8-2.351v-3.4h-5.373v-1.452h7.006v4.85Zm-5.165 8.009v-4.4h1.651v2.934h9.191v1.467Zm9.027-13.13h1.647v9.91h-1.645v-5.312h-1.509v-1.452h1.509Z" class="cls-3" transform="translate(-227.322 -552.407)"/><path id="패스_7251" d="M312.807 558.268v1.42h-8.668v-1.422h2.709v-2.44h1.647v2.44Zm-2.381-1.137v-2.876h-5.688v-1.422h7.32v4.3Zm3.967 6.227a2.827 2.827 0 0 1-.277 1.228 3.17 3.17 0 0 1-.741 1 3.343 3.343 0 0 1-1.07.688 3.573 3.573 0 0 1-2.649 0 3.524 3.524 0 0 1-1.085-.688 3.17 3.17 0 0 1-.741-1 2.862 2.862 0 0 1 0-2.455 3.342 3.342 0 0 1 .741-1.018 3.7 3.7 0 0 1 1.085-.674 3.579 3.579 0 0 1 2.649 0 3.5 3.5 0 0 1 1.07.674 3.343 3.343 0 0 1 .741 1.018 2.83 2.83 0 0 1 .278 1.227Zm-1.66 0a1.763 1.763 0 0 0-1.751-1.751 1.751 1.751 0 1 0 0 3.5 1.763 1.763 0 0 0 1.751-1.751Zm2.754-3.428h-1.66v-7.35h1.66v2.859h1.706v1.5h-1.706Z" class="cls-3" transform="translate(-248.691 -552.408)"/><path id="패스_7252" d="M347.976 556.173a3.211 3.211 0 0 1-.292 1.354 3.379 3.379 0 0 1-.8 1.1 3.634 3.634 0 0 1-1.175.755 3.763 3.763 0 0 1-1.429.277 3.708 3.708 0 0 1-1.422-.277 3.843 3.843 0 0 1-1.182-.755 3.339 3.339 0 0 1 0-4.925 3.836 3.836 0 0 1 1.182-.755 3.7 3.7 0 0 1 1.422-.277 3.76 3.76 0 0 1 1.429.277 3.63 3.63 0 0 1 1.175.755 3.384 3.384 0 0 1 .8 1.1 3.245 3.245 0 0 1 .292 1.371Zm-6.482 4.7h10.673v4.94h-1.66v-3.471h-9.013Zm4.88-4.685a1.919 1.919 0 0 0-.172-.809 1.978 1.978 0 0 0-1.115-1.115 1.911 1.911 0 0 0-.808-.172 1.876 1.876 0 0 0-.793.172 2.416 2.416 0 0 0-.659.441 2.653 2.653 0 0 0-.441.673 1.907 1.907 0 0 0-.172.809 1.82 1.82 0 0 0 .172.786 2.685 2.685 0 0 0 .441.666 2.416 2.416 0 0 0 .659.441 1.874 1.874 0 0 0 .793.172 1.911 1.911 0 0 0 .808-.172 2.674 2.674 0 0 0 .674-.441 2.716 2.716 0 0 0 .441-.666 1.832 1.832 0 0 0 .173-.785Zm4.132-3.608h1.66v7.5h-1.66v-1.736h-2.113v-1.362h2.113v-1.633h-2.113v-1.362h2.113Z" class="cls-3" transform="translate(-270.821 -552.408)"/><path id="패스_7253" d="M382.543 560.48h1.616v4.132h3.95v1.467h-12.273v-1.467h2.889v-4.132h1.617v4.132h2.2Zm2.889 1.8v-6.362h-8.637v-1.467h10.3v7.829Z" class="cls-3" transform="translate(-292.216 -553.541)"/><path id="패스_7254" d="M412.407 558.338v-5.419h10.283v1.348h-8.637v.7h8.578v1.3h-8.578v.748h8.683v1.317h-4.356v.853h5.315v1.362h-12.277v-1.362h5.3v-.853Zm8.413 5.449a2.649 2.649 0 0 1-.247 1.132 3 3 0 0 1-.679.936 3.733 3.733 0 0 1-1.056.644 3.495 3.495 0 0 1-3.6-.644 2.889 2.889 0 0 1-.7-.936 2.724 2.724 0 0 1 0-2.268 3.077 3.077 0 0 1 .7-.943 3.376 3.376 0 0 1 1.048-.636 3.552 3.552 0 0 1 3.609.636 3.2 3.2 0 0 1 .679.943 2.631 2.631 0 0 1 .246 1.139Zm-1.647-.015a1.509 1.509 0 0 0-.479-1.122 1.58 1.58 0 0 0-1.138-.464 1.6 1.6 0 0 0-1.145.464 1.492 1.492 0 0 0-.487 1.122 1.518 1.518 0 0 0 .487 1.132 1.591 1.591 0 0 0 1.145.472 1.567 1.567 0 0 0 1.138-.472 1.532 1.532 0 0 0 .478-1.129Z" class="cls-3" transform="translate(-313.816 -552.615)"/><path id="패스_7255" d="M455.726 561.891h-3.683v3.609H450.4v-3.608h-3.55v-1.482h8.877Zm-.913-5.688a3.061 3.061 0 0 1-.284 1.3 3.29 3.29 0 0 1-.779 1.062 3.731 3.731 0 0 1-5.09 0 3.286 3.286 0 0 1-.779-1.063 3.123 3.123 0 0 1 0-2.6 3.465 3.465 0 0 1 .779-1.078 3.729 3.729 0 0 1 5.09 0 3.471 3.471 0 0 1 .779 1.078 3.067 3.067 0 0 1 .282 1.3Zm-1.631 0a1.853 1.853 0 0 0-.583-1.377 1.927 1.927 0 0 0-1.392-.568 1.9 1.9 0 0 0-1.385.568 1.924 1.924 0 0 0 0 2.747 1.887 1.887 0 0 0 1.386.577 1.912 1.912 0 0 0 1.392-.577 1.858 1.858 0 0 0 .581-1.373Zm3.608-3.622h1.644v13.357h-1.647Z" class="cls-3" transform="translate(-335.325 -552.408)"/><path id="패스_7256" d="M491.308 560.347h-3.533v2.022h-1.66v-2.022h-3.683v-1.467h8.877Zm-7.963 5.1v-3.818h1.647V564h9.189v1.452Zm6.782-10.195a2.7 2.7 0 0 1-.269 1.2 3.634 3.634 0 0 1-.7.988 3.547 3.547 0 0 1-4.73 0 3.622 3.622 0 0 1-.7-.988 2.7 2.7 0 0 1-.269-1.2 2.748 2.748 0 0 1 .269-1.207 3.6 3.6 0 0 1 .7-1 3.547 3.547 0 0 1 4.73 0 3.608 3.608 0 0 1 .7 1 2.751 2.751 0 0 1 .269 1.207Zm-1.6 0a1.591 1.591 0 0 0-.517-1.207 1.773 1.773 0 0 0-2.44 0 1.591 1.591 0 0 0-.516 1.207 1.572 1.572 0 0 0 .516 1.19 1.773 1.773 0 0 0 2.44 0 1.573 1.573 0 0 0 .512-1.19Zm3.849-2.934h1.647v10.194h-1.651v-4.925h-1.856v-1.434h1.856Z" class="cls-3" transform="translate(-356.925 -552.151)"/><path id="패스_7257" d="M525.648 558.43a2.763 2.763 0 0 1-.254 1.168 3.208 3.208 0 0 1-.689.973 3.285 3.285 0 0 1-1.5.778v1.692h3.682v1.452h-8.876v-1.452h3.547v-1.692a3.29 3.29 0 0 1-1.5-.778 3.188 3.188 0 0 1-.688-.973 2.764 2.764 0 0 1-.254-1.168 2.717 2.717 0 0 1 .254-1.161 3.217 3.217 0 0 1 .688-.965 3.13 3.13 0 0 1 1.048-.644 3.721 3.721 0 0 1 2.545 0 3.126 3.126 0 0 1 1.047.644 3.237 3.237 0 0 1 .689.965 2.717 2.717 0 0 1 .261 1.161Zm-4.161-4.655v-1.422h1.781v1.422h3.174v1.425H518.3v-1.422Zm2.56 4.655a1.521 1.521 0 0 0-.487-1.132 1.628 1.628 0 0 0-1.175-.471 1.578 1.578 0 0 0-1.161.471 1.543 1.543 0 0 0-.471 1.132 1.646 1.646 0 0 0 2.807 1.138 1.544 1.544 0 0 0 .486-1.138Zm3.907-5.988h1.646V565.8h-1.647Z" class="cls-3" transform="translate(-378.526 -552.27)"/></g></g></svg>