<?xml version="1.0" encoding="utf-8"?>
<!-- Generator: Adobe Illustrator 27.0.0, SVG Export Plug-In . SVG Version: 6.00 Build 0)  -->
<svg version="1.1" id="Layer_1" xmlns="http://www.w3.org/2000/svg" xmlns:xlink="http://www.w3.org/1999/xlink" x="0px" y="0px"
	 viewBox="0 0 320 512" style="enable-background:new 0 0 320 512;" xml:space="preserve">
<style type="text/css">
	.st0{fill:#FFFFFF;}
</style>
<path class="st0" d="M112,160.4c0-35.5,28.8-64.4,64.4-64.4c6.9,0,13.8,1.1,20.4,3.3l81.2,27.1c16.8,5.6,34.9-3.5,40.5-20.2
	s-3.5-34.9-20.2-40.5L217,38.6c-13.1-4.4-26.8-6.6-40.6-6.6C105.5,32,48,89.5,48,160.4V224H32c-17.7,0-32,14.3-32,32s14.3,32,32,32
	h16v44.5c0,17.4-4.7,34.5-13.7,49.4L4.6,431.5c-5.9,9.9-6.1,22.2-0.4,32.2S20.5,480,32,480h256c17.7,0,32-14.3,32-32s-14.3-32-32-32
	H88.5l0.7-1.1c14.9-24.9,22.8-53.4,22.8-82.4V288h112c17.7,0,32-14.3,32-32s-14.3-32-32-32H112V160.4z"/>
</svg>
