<?xml version="1.0" encoding="utf-8"?>
<!-- Generator: Adobe Illustrator 27.9.0, SVG Export Plug-In . SVG Version: 6.00 Build 0)  -->
<svg version="1.1" id="Layer_1" xmlns="http://www.w3.org/2000/svg" xmlns:xlink="http://www.w3.org/1999/xlink" x="0px" y="0px"
	 viewBox="0 0 871.3 784.2" style="enable-background:new 0 0 871.3 784.2;" xml:space="preserve">
<style type="text/css">
	.st0{fill:#2D2D2D;}
</style>
<g>
	<path class="st0" d="M1792.9,1201.4c-29.2,0-58.4,0-87.6,0c-11.8,0-19.3-6.1-19.9-16c-0.7-10.4,6.8-19.5,17.6-21.2
		c1.6-0.3,3.3-0.2,4.9-0.2c57.3,0,114.6-0.1,171.9,0.1c28,0.1,52.5,19.3,59,45.6c6.8,27.6-5.1,56.2-30.1,68.6
		c-9,4.4-19.7,7.3-29.7,7.5c-50.5,0.7-101,0.5-151.4,0.3c-28.2-0.1-47.8-24.7-40.8-50.4c4.5-16.6,18.6-27.5,36.2-27.6
		c52.7-0.1,105.3-0.1,158,0c11.8,0,18.9,6.4,19.1,16.7c0.2,10.6-7.1,17.5-19.1,17.6c-47.7,0.1-145.8-0.4-148.2-0.4
		c-2.2,0-3.3,1.7-3.4,3.4c-0.1,1.5,1.6,3.3,3.4,3.3c50.5,0.2,98.7,0.3,149.2,0.1c14.7,0,24.8-10.2,24.7-23.8
		c-0.1-13.5-10.5-23.2-25.2-23.3C1851.8,1201.3,1822.3,1201.4,1792.9,1201.4z"/>
	<path class="st0" d="M1792.9,1331.2c-29.2,0-58.4,0-87.6,0c-11.8,0-19.3-6.1-19.9-16c-0.7-10.4,6.8-19.5,17.6-21.2
		c1.6-0.3,3.3-0.2,4.9-0.2c57.3,0,114.6-0.1,171.9,0.1c28,0.1,52.5,19.3,59,45.6c6.8,27.6-5.1,56.2-30.1,68.6
		c-9,4.4-19.7,7.3-29.7,7.5c-50.5,0.7-101,0.5-151.4,0.3c-28.2-0.1-47.8-24.7-40.8-50.4c4.5-16.6,18.6-27.5,36.2-27.6
		c52.7-0.1,105.3-0.1,158,0c11.8,0,18.9,6.4,19.1,16.7c0.2,10.6-7.1,17.5-19.1,17.6c-47.7,0.1-145.8-0.4-148.2-0.4
		c-2.2,0-3.3,1.7-3.4,3.4c-0.1,1.5,1.6,3.3,3.4,3.3c50.5,0.2,98.7,0.3,149.2,0.1c14.7,0,24.8-10.2,24.7-23.8
		c-0.1-13.5-10.5-23.2-25.2-23.3C1851.8,1331.2,1822.3,1331.2,1792.9,1331.2z"/>
</g>
<g>
	<g>
		<path class="st0" d="M288.8,1554.3c2-6.8,6.6-10.3,10.6-10.3c3.2,0,5.8,1.3,6.5,5.3c-0.3,3-1.6,5.4-5,5.4c-2.5,0-4.2-1.6-6-4
			l-0.6-0.8c-2.7,2.5-4.3,5.4-5.6,10.3v5.6c0,3.7,0.1,9.3,0.1,13.3l6.2,0.6v2.1h-21.8v-2.1l4.6-0.5c0.1-3.9,0.1-9.7,0.1-13.4v-5.6
			c0-4.4-0.1-6.6-0.2-9.8l-5-0.5v-1.6l14.6-4.2l0.9,0.7L288.8,1554.3z"/>
		<path class="st0" d="M341.2,1573.8c-2.8,5.8-8.1,9.1-15,9.1c-11.1,0-19.3-7-19.3-19.6c0-12.6,9.6-19.3,19.2-19.3
			c10.1,0,15.5,6.8,15.5,15.3c0,1.7-0.1,2.8-0.4,4.1h-22.8c0.3,10.5,5.4,14.8,11.7,14.8c4.7,0,7.6-2,9.8-5.1L341.2,1573.8z
			 M327.5,1560.9c3.2,0,4-1.5,4-5.7c0-5.8-2.5-8.9-6.1-8.9c-3.7,0-6.7,4.2-7,14.6L327.5,1560.9z"/>
		<path class="st0" d="M369.9,1546.4c-0.7-0.1-1.3-0.1-1.9-0.1c-6,0-10.3,5.8-10.3,16.1c0,10,4.9,15.7,12.1,15.7
			c3.9,0,6.8-1.7,9.2-4.8l1.3,0.9c-3.1,5.6-8,8.7-15.3,8.7c-10.2,0-18.7-6.9-18.7-19.4c0-12.5,9.1-19.5,20.3-19.5
			c7.6,0,12.9,4.6,13.8,10.7c-0.7,2.4-2.1,3.6-4.4,3.6c-2.8,0-5.2-1.6-5.4-6.6L369.9,1546.4z"/>
		<path class="st0" d="M384.6,1563.2c0-11.9,8.5-19.3,19-19.3c10.6,0,19.1,7.2,19.1,19.3c0,12-7.6,19.7-19.1,19.7
			C392.2,1582.9,384.6,1575,384.6,1563.2z M411.1,1563.3c0-11.7-2.6-17-7.4-17c-4.8,0-7.5,5.3-7.5,17c0,11.7,2.7,17.2,7.5,17.2
			C408.5,1580.5,411.1,1575,411.1,1563.3z"/>
		<path class="st0" d="M492,1579.6v2.1h-19v-2.1l4-0.4c0.1-3.9,0.1-9.6,0.1-13.5v-9.1c0-5.9-1.5-7.6-4.7-7.6c-2.5,0-5,1.4-7.5,4
			c0.2,1.2,0.3,2.5,0.3,3.9v8.9c0,4,0.1,9.7,0.2,13.6l3.8,0.3v2.1h-19v-2.1l4.3-0.4c0.1-3.9,0.1-9.6,0.1-13.5v-9.1
			c0-5.5-1.4-7.6-4.6-7.6c-2.4,0-5,1.5-7.4,3.9v12.8c0,3.8,0.1,9.6,0.1,13.6l3.8,0.3v2.1h-19.4v-2.1l4.5-0.4c0.1-4,0.1-9.7,0.1-13.5
			v-5.6c0-4.4-0.1-6.6-0.2-9.9l-5-0.5v-1.5l14.6-4.2l0.9,0.7l0.5,6c3.9-4.6,7.5-6.7,12.1-6.7c5,0,8.5,2.3,9.9,7
			c4.4-5.3,8.1-7,12.4-7c7.5,0,10.9,4.2,10.9,13.3v8.5c0,4,0.1,9.7,0.1,13.5L492,1579.6z"/>
		<path class="st0" d="M530.4,1573.8c-2.8,5.8-8.1,9.1-15,9.1c-11.1,0-19.3-7-19.3-19.6c0-12.6,9.6-19.3,19.2-19.3
			c10.1,0,15.5,6.8,15.5,15.3c0,1.7-0.1,2.8-0.4,4.1h-22.8c0.3,10.5,5.4,14.8,11.7,14.8c4.7,0,7.6-2,9.8-5.1L530.4,1573.8z
			 M516.7,1560.9c3.2,0,4-1.5,4-5.7c0-5.8-2.5-8.9-6.1-8.9c-3.7,0-6.7,4.2-7,14.6L516.7,1560.9z"/>
		<path class="st0" d="M578.1,1579.6v2.1h-19.5v-2.1l4.2-0.4c0.1-3.9,0.1-9.6,0.1-13.5v-9.7c0-5.2-1.5-7.1-4.6-7.1
			c-2,0-4.8,1.3-7.6,3.8v12.9c0,3.8,0.1,9.6,0.1,13.6l3.8,0.3v2.1h-19.4v-2.1l4.5-0.4c0.1-4,0.1-9.7,0.1-13.5v-5.6
			c0-4.4-0.1-6.6-0.2-9.8l-5-0.5v-1.6l14.6-4.2l0.9,0.7l0.4,5.9c4.4-5.1,8.1-6.6,12.5-6.6c6.4,0,10.7,4.2,10.7,12.9v8.9
			c0,4,0.1,9.7,0.2,13.6L578.1,1579.6z"/>
		<path class="st0" d="M623.2,1579.6v2.1l-14.4,0.8l-0.5-4.2c-2.8,2.8-6.3,4.5-10.4,4.5c-8.8,0-15.7-7-15.7-19.2
			c0-12.6,7.4-19.7,16.6-19.7c3.9,0,7,1.5,9.6,4.6v-17l-5.5-0.5v-1.7l15.2-2.9l0.9,0.6l-0.3,10.7v41.7L623.2,1579.6z M608.1,1550.3
			c-1.6-1.3-3.3-1.7-5-1.7c-5.1,0-9.3,3.4-9.3,14.7c0,10.9,3.9,14.8,9.1,14.8c1.9,0,3.6-0.5,5.2-1.7V1550.3z"/>
	</g>
</g>
<g>
	<g>
		<path class="st0" d="M1558.7,582.4c3.2-3.5,7.1-5,11.5-5c8.2,0,14.7,6.8,14.7,19.3c0,12.2-7.4,19.7-16.3,19.7
			c-3.7,0-7-1.3-9.9-4.6v4c0,4,0.1,9.1,0.1,14.4l5.2,0.6v1.9h-20.6v-1.9l4.5-0.5c0.1-5.3,0.1-10.4,0.1-14.5v-21.9
			c0-4.4-0.1-6.6-0.2-9.9l-5-0.5v-1.6l14.4-4.2l0.9,0.7L1558.7,582.4z M1559,609.8c1.7,1.3,3.4,1.7,5.6,1.7c5.2,0,8.9-3.6,8.9-14.8
			c0-10.9-3.2-14.7-8.5-14.7c-2,0-3.8,0.3-6,2.3V609.8z"/>
		<path class="st0" d="M1605,587.7c2-6.8,6.6-10.3,10.6-10.3c3.2,0,5.8,1.3,6.5,5.3c-0.3,3-1.6,5.4-5,5.4c-2.5,0-4.2-1.6-6-4
			l-0.6-0.8c-2.7,2.5-4.3,5.4-5.6,10.3v5.6c0,3.7,0.1,9.3,0.1,13.3l6.2,0.6v2.1h-21.8V613l4.6-0.5c0.1-3.9,0.1-9.7,0.1-13.4v-5.6
			c0-4.4-0.1-6.6-0.2-9.8l-5-0.5v-1.6l14.6-4.2l0.9,0.7L1605,587.7z"/>
		<path class="st0" d="M1644.3,613v2.1h-19.6V613l4.4-0.4c0.1-4,0.1-9.7,0.1-13.5v-5.4c0-4.3-0.1-6.8-0.2-10.2l-5-0.5v-1.6l15.4-4
			l0.9,0.7l-0.3,10.7v10.3c0,3.8,0.1,9.6,0.1,13.5L1644.3,613z M1628.7,565.3c0-3.2,2.6-5.5,5.8-5.5c3.2,0,5.8,2.3,5.8,5.5
			c0,3.2-2.6,5.4-5.8,5.4C1631.3,570.7,1628.7,568.4,1628.7,565.3z"/>
		<path class="st0" d="M1691.3,613v2.1h-19.5V613l4.2-0.4c0.1-3.9,0.1-9.6,0.1-13.5v-9.7c0-5.2-1.5-7.1-4.6-7.1
			c-2,0-4.8,1.3-7.6,3.8v12.9c0,3.8,0.1,9.6,0.1,13.6l3.8,0.3v2.1h-19.4V613l4.5-0.4c0.1-4,0.1-9.7,0.1-13.5v-5.6
			c0-4.4-0.1-6.6-0.2-9.8l-5-0.5v-1.6l14.6-4.2l0.9,0.7l0.4,5.9c4.4-5.1,8.1-6.6,12.5-6.6c6.4,0,10.7,4.2,10.7,12.9v8.9
			c0,4,0.1,9.7,0.2,13.6L1691.3,613z"/>
		<path class="st0" d="M1720.1,610.7c-2,3.6-5.4,5.6-10.5,5.6c-6.8,0-10.5-3.1-10.5-10.5c0-2.5,0.1-4.5,0.1-7.3v-17.2h-5.4v-2.1
			l6-0.7l3.5-10.7h6.9l-0.1,10.8h8.3v2.8h-8.3v25.4c0,3.6,1.7,5.2,4.4,5.2c1.7,0,2.8-0.7,4.6-2.1L1720.1,610.7z"/>
		<path class="st0" d="M1783.6,585.6c-1.9,7-3.8,11.3-8.1,16.9c3,3.2,6,6.2,10,10.3l3,0.4l-0.1,1.9c-3.2,0.7-4.8,1-6.9,1
			c-4.2,0-7.3-0.9-10.4-3.7c-1-0.9-1.9-1.9-2.9-2.8c-3.1,3.6-7.8,6.6-14.2,6.6c-10.1,0-15.4-6.2-15.4-13.3c0-5.8,3.4-10.5,11.9-14.2
			l-0.9-1.1c-3.4-4.3-4.6-7.9-4.6-11.7c0-7.2,5.6-11.8,13.9-11.8s12.8,4,12.8,9.8c0,5.2-3.8,8.9-11.4,12.1c1.4,1.6,3.3,3.6,5.8,6.4
			c3.2,3.4,5.6,6.2,8,8.7c2.5-4.7,4-9.7,4.8-15.4l-6.2-0.9v-1.9h16.3v1.9L1783.6,585.6z M1767,608.2c-2.8-3.1-5.4-6.2-7.7-9
			c-3.6-4.4-5.8-7-7.6-9.3c-2.8,3-3.8,6.2-3.8,9.5c0,6.8,4.7,11.3,11.2,11.3C1762.1,610.6,1764.7,609.8,1767,608.2z M1753.2,573
			c0,2.4,0.6,4.6,2.9,7.8c0.9,1.2,1.8,2.3,3.2,3.8c3.2-3.6,5.1-7.2,5.1-11.3c0-4.2-2-6.5-5.4-6.5
			C1755.5,566.9,1753.2,569.4,1753.2,573z"/>
		<path class="st0" d="M1825.3,582.4c3.2-3.5,7.1-5,11.5-5c8.2,0,14.7,6.8,14.7,19.3c0,12.2-7.4,19.7-16.3,19.7
			c-3.7,0-7-1.3-9.9-4.6v4c0,4,0.1,9.1,0.1,14.4l5.2,0.6v1.9h-20.6v-1.9l4.5-0.5c0.1-5.3,0.1-10.4,0.1-14.5v-21.9
			c0-4.4-0.1-6.6-0.2-9.9l-5-0.5v-1.6l14.4-4.2l0.9,0.7L1825.3,582.4z M1825.6,609.8c1.7,1.3,3.4,1.7,5.6,1.7
			c5.2,0,8.9-3.6,8.9-14.8c0-10.9-3.2-14.7-8.5-14.7c-2,0-3.8,0.3-6,2.3V609.8z"/>
		<path class="st0" d="M1893.7,611c-1.7,3.7-4.2,5.2-8.5,5.2c-4.4,0-6.9-2.2-7.9-5.8c-3.4,3.8-6,5.8-11.3,5.8
			c-5.8,0-9.8-3.5-9.8-9.1c0-6.1,3.5-9.4,14.3-12.5c1.9-0.5,4.2-1.1,6.6-1.7v-4.1c0-7-1.6-9.1-6.7-9.1c-0.9,0-1.8,0.1-2.8,0.3
			l-0.5,4.8c-0.2,4.6-2.5,6.4-5,6.4c-2.4,0-4.1-1.2-4.6-3.4c0.5-6.3,6.4-10.3,16.8-10.3c9.5,0,13.3,4.1,13.3,13.8v18
			c0,2.5,0.8,3.4,2.1,3.4c1,0,1.7-0.5,3-2.5L1893.7,611z M1863.7,580.9l-1.1,0.4L1863.7,580.9z M1876.9,594.7
			c-1.5,0.4-2.9,0.8-3.7,1.1c-4.7,1.9-7.2,5.1-7.2,10c0,4,1.9,5.9,5,5.9c1.8,0,3.4-0.9,5.8-3.1V594.7z"/>
		<path class="st0" d="M1938.6,613v2.1H1924l-9.5-19.7l-3,2.8v0.5c0,4,0.1,10.1,0.1,14l4.2,0.4v2.1H1896V613l4.5-0.4
			c0.1-3.9,0.1-10,0.1-13.5v-34.3l-4.9-0.5v-1.7l15-2.9l0.9,0.6l-0.3,10.8v24.2l14.5-14l-6.8-0.8v-2h17.5v2l-6.6,0.7l-8,7.4
			l12.2,23.9L1938.6,613z"/>
		<path class="st0" d="M1978.8,611c-1.7,3.7-4.2,5.2-8.5,5.2c-4.4,0-6.9-2.2-7.9-5.8c-3.4,3.8-6,5.8-11.3,5.8
			c-5.8,0-9.8-3.5-9.8-9.1c0-6.1,3.5-9.4,14.3-12.5c1.9-0.5,4.2-1.1,6.6-1.7v-4.1c0-7-1.6-9.1-6.7-9.1c-0.9,0-1.8,0.1-2.8,0.3
			l-0.5,4.8c-0.2,4.6-2.5,6.4-5,6.4c-2.4,0-4.1-1.2-4.6-3.4c0.5-6.3,6.4-10.3,16.8-10.3c9.5,0,13.3,4.1,13.3,13.8v18
			c0,2.5,0.8,3.4,2.1,3.4c1,0,1.7-0.5,3-2.5L1978.8,611z M1948.8,580.9l-1.1,0.4L1948.8,580.9z M1962.1,594.7
			c-1.5,0.4-2.9,0.8-3.7,1.1c-4.7,1.9-7.2,5.1-7.2,10c0,4,1.9,5.9,5,5.9c1.8,0,3.4-0.9,5.8-3.1V594.7z"/>
		<path class="st0" d="M2018.4,583.3l-8.1-0.9c1.5,2,2.3,4.5,2.3,7.3c0,7-5,12.6-15.5,12.6c-3.2,0-6-0.5-8.2-1.5
			c-0.7,1.2-1.1,2.3-1.1,3.8c0,2.5,1.5,3.8,5.3,3.8h9.9c10.8,0,14.8,4.2,14.8,10.2c0,7.5-7.4,13.8-21.5,13.8
			c-12.2,0-16.2-4.2-16.2-9.1c0-3,2.2-5.6,6.7-7.3c-3-1.3-4.9-3.1-4.9-6.4s1.7-5.8,5.8-9.4c-4.1-2.2-6-6-6-10.5
			c0-7.2,5-12.4,15.6-12.4c5.2,0,8.9,1.3,11.5,3.4l8.6-3.4l1.2,0.7V583.3z M1996,617.5c-4,0-5.8-0.1-8-0.7c-1.1,1.5-1.7,3-1.7,5.2
			c0,4.9,3.7,7.6,9.8,7.6c8.9,0,13.1-2.8,13.1-6.6c0-2.9-1.5-5.4-5.8-5.4H1996z M2003.1,589.8c0-6.6-2.2-10.4-5.9-10.4
			c-3.8,0-5.9,3.9-5.9,10.4c0,6.5,1.9,10.5,5.8,10.5C2000.9,600.3,2003.1,596.3,2003.1,589.8z"/>
		<path class="st0" d="M2054.9,607.2c-2.8,5.8-8.1,9.1-15,9.1c-11.1,0-19.3-7-19.3-19.6c0-12.6,9.6-19.3,19.2-19.3
			c10.1,0,15.5,6.8,15.5,15.3c0,1.7-0.1,2.8-0.4,4.1h-22.8c0.3,10.5,5.4,14.8,11.7,14.8c4.7,0,7.6-2,9.8-5.1L2054.9,607.2z
			 M2041.3,594.3c3.2,0,4-1.5,4-5.7c0-5.8-2.5-8.9-6.1-8.9c-3.7,0-6.7,4.2-7,14.6L2041.3,594.3z"/>
	</g>
</g>
<g>
	<g>
		<path class="st0" d="M3026.1,1546.4c-0.7-0.1-1.3-0.1-1.9-0.1c-6,0-10.3,5.8-10.3,16.1c0,10,4.9,15.7,12.1,15.7
			c3.9,0,6.8-1.7,9.2-4.8l1.3,0.9c-3.1,5.6-8,8.7-15.3,8.7c-10.2,0-18.7-6.9-18.7-19.4s9.1-19.5,20.3-19.5c7.6,0,12.9,4.6,13.8,10.7
			c-0.7,2.4-2.1,3.6-4.4,3.6c-2.8,0-5.2-1.6-5.4-6.6L3026.1,1546.4z"/>
		<path class="st0" d="M3078.7,1577.6c-1.7,3.7-4.2,5.2-8.5,5.2c-4.4,0-6.9-2.2-7.9-5.8c-3.4,3.8-6,5.8-11.3,5.8
			c-5.8,0-9.8-3.5-9.8-9.1c0-6.1,3.5-9.4,14.3-12.5c1.9-0.5,4.2-1.1,6.6-1.7v-4.1c0-7-1.6-9.1-6.7-9.1c-0.9,0-1.8,0.1-2.8,0.3
			l-0.5,4.8c-0.2,4.6-2.5,6.4-5,6.4c-2.4,0-4.1-1.2-4.6-3.4c0.5-6.3,6.4-10.3,16.8-10.3c9.5,0,13.3,4.1,13.3,13.8v18
			c0,2.5,0.8,3.4,2.1,3.4c1,0,1.7-0.5,3-2.5L3078.7,1577.6z M3048.7,1547.5l-1.1,0.4L3048.7,1547.5z M3062,1561.3
			c-1.5,0.4-2.9,0.8-3.7,1.1c-4.7,1.9-7.2,5.1-7.2,10c0,4,1.9,5.9,5,5.9c1.8,0,3.4-0.9,5.8-3.1V1561.3z"/>
		<path class="st0" d="M3106,1577.3c-2,3.6-5.4,5.6-10.5,5.6c-6.8,0-10.5-3.1-10.5-10.5c0-2.5,0.1-4.5,0.1-7.3v-17.2h-5.4v-2.1
			l6-0.7l3.5-10.7h6.9l-0.1,10.8h8.3v2.8h-8.3v25.4c0,3.6,1.7,5.2,4.4,5.2c1.7,0,2.8-0.7,4.6-2.1L3106,1577.3z"/>
		<path class="st0" d="M3146,1577.6c-1.7,3.7-4.2,5.2-8.5,5.2c-4.4,0-6.9-2.2-7.9-5.8c-3.4,3.8-6,5.8-11.3,5.8
			c-5.8,0-9.8-3.5-9.8-9.1c0-6.1,3.5-9.4,14.3-12.5c1.9-0.5,4.2-1.1,6.6-1.7v-4.1c0-7-1.6-9.1-6.7-9.1c-0.9,0-1.8,0.1-2.8,0.3
			l-0.5,4.8c-0.2,4.6-2.5,6.4-5,6.4c-2.4,0-4.1-1.2-4.6-3.4c0.5-6.3,6.4-10.3,16.8-10.3c9.5,0,13.3,4.1,13.3,13.8v18
			c0,2.5,0.8,3.4,2.1,3.4c1,0,1.7-0.5,3-2.5L3146,1577.6z M3116,1547.5l-1.1,0.4L3116,1547.5z M3129.3,1561.3
			c-1.5,0.4-2.9,0.8-3.7,1.1c-4.7,1.9-7.2,5.1-7.2,10c0,4,1.9,5.9,5,5.9c1.8,0,3.4-0.9,5.8-3.1V1561.3z"/>
		<path class="st0" d="M3168.5,1579.6v2.1h-20.3v-2.1l4.6-0.4c0.1-4.4,0.1-9.2,0.1-13.5v-34.3l-4.9-0.5v-1.7l15-2.9l0.9,0.6
			l-0.3,10.8v28c0,4.4,0.1,9.1,0.2,13.5L3168.5,1579.6z"/>
		<path class="st0" d="M3172.9,1563.2c0-11.9,8.5-19.3,19-19.3c10.6,0,19.1,7.2,19.1,19.3c0,12-7.6,19.7-19.1,19.7
			C3180.4,1582.9,3172.9,1575,3172.9,1563.2z M3199.3,1563.3c0-11.7-2.6-17-7.4-17s-7.5,5.3-7.5,17c0,11.7,2.7,17.2,7.5,17.2
			S3199.3,1575,3199.3,1563.3z"/>
		<path class="st0" d="M3253.3,1549.9l-8.1-0.9c1.5,2,2.3,4.5,2.3,7.3c0,7-5,12.6-15.5,12.6c-3.2,0-6-0.5-8.2-1.5
			c-0.7,1.2-1.1,2.3-1.1,3.8c0,2.5,1.5,3.8,5.3,3.8h9.9c10.8,0,14.8,4.2,14.8,10.2c0,7.5-7.4,13.8-21.5,13.8
			c-12.2,0-16.2-4.2-16.2-9.1c0-3,2.2-5.6,6.7-7.3c-3-1.3-4.9-3.1-4.9-6.4s1.7-5.8,5.8-9.4c-4.1-2.2-6-6-6-10.5
			c0-7.2,5-12.4,15.6-12.4c5.2,0,8.9,1.3,11.5,3.4l8.6-3.4l1.2,0.7V1549.9z M3230.8,1584.1c-4,0-5.8-0.1-8-0.7
			c-1.1,1.5-1.7,3-1.7,5.2c0,4.9,3.7,7.6,9.8,7.6c8.9,0,13.1-2.8,13.1-6.6c0-2.9-1.5-5.4-5.8-5.4H3230.8z M3237.9,1556.4
			c0-6.6-2.2-10.4-5.9-10.4c-3.8,0-5.9,3.9-5.9,10.4c0,6.5,1.9,10.5,5.8,10.5C3235.7,1566.9,3237.9,1562.9,3237.9,1556.4z"/>
		<path class="st0" d="M3298.7,1579.8v2l-14.8,0.9l-0.3-6.7c-3.1,3.9-7.5,6.9-12.4,6.9c-6.7,0-10.9-3.6-10.8-13.8l0.3-19.9l-4.7-0.9
			v-1.8l14.9-2l0.9,0.7l-0.4,10.9v14.1c0,5.4,2.1,7,5.3,7c2.5,0,5-1.3,6.9-3.2l0.3-24.8l-4.5-0.9v-1.5l14.6-2.3l0.9,0.7l-0.3,10.9
			v23.5L3298.7,1579.8z"/>
		<path class="st0" d="M3337.2,1573.8c-2.8,5.8-8.1,9.1-15,9.1c-11.1,0-19.3-7-19.3-19.6c0-12.6,9.6-19.3,19.2-19.3
			c10.1,0,15.5,6.8,15.5,15.3c0,1.7-0.1,2.8-0.4,4.1h-22.8c0.3,10.5,5.4,14.8,11.7,14.8c4.7,0,7.6-2,9.8-5.1L3337.2,1573.8z
			 M3323.6,1560.9c3.2,0,4-1.5,4-5.7c0-5.8-2.5-8.9-6.1-8.9c-3.7,0-6.7,4.2-7,14.6L3323.6,1560.9z"/>
	</g>
</g>
<g>
	<g>
		<path class="st0" d="M1642.3,1577.6c-1.7,3.7-4.2,5.2-8.5,5.2c-4.4,0-6.9-2.2-7.9-5.8c-3.4,3.8-6,5.8-11.3,5.8
			c-5.8,0-9.8-3.5-9.8-9.1c0-6.1,3.5-9.4,14.3-12.5c1.9-0.5,4.2-1.1,6.6-1.7v-4.1c0-7-1.6-9.1-6.7-9.1c-0.9,0-1.8,0.1-2.8,0.3
			l-0.5,4.8c-0.2,4.6-2.5,6.4-5,6.4c-2.4,0-4.1-1.2-4.6-3.4c0.5-6.3,6.4-10.3,16.8-10.3c9.5,0,13.3,4.1,13.3,13.8v18
			c0,2.5,0.8,3.4,2.1,3.4c1,0,1.7-0.5,3-2.5L1642.3,1577.6z M1612.3,1547.5l-1.1,0.4L1612.3,1547.5z M1625.6,1561.3
			c-1.5,0.4-2.9,0.8-3.7,1.1c-4.7,1.9-7.2,5.1-7.2,10c0,4,1.9,5.9,5,5.9c1.8,0,3.4-0.9,5.8-3.1V1561.3z"/>
		<path class="st0" d="M1660,1548.7c3.3-3.2,7.2-4.7,11.3-4.7c8.4,0,14.9,6.8,14.9,19.3c0,11.1-6.2,19.6-15.7,19.6
			c-4,0-7.8-1.5-10.7-4.8l-1.4,4.6l-13.7-1v-2.1l4.4-0.4c0.1-3.9,0.1-9.7,0.1-13.5v-34.3l-4.9-0.5v-1.7l14.8-2.9l0.9,0.6l-0.2,10.8
			V1548.7z M1660.1,1576.2c1.7,1.3,3.6,1.9,5.6,1.9c4.7,0,8.9-2.8,8.9-15.1c0-10.5-3.7-14.4-8.7-14.4c-2.1,0-3.8,0.3-5.8,2V1576.2z"
			/>
		<path class="st0" d="M1691.4,1563.2c0-11.9,8.5-19.3,19-19.3c10.6,0,19.1,7.2,19.1,19.3c0,12-7.6,19.7-19.1,19.7
			C1698.9,1582.9,1691.4,1575,1691.4,1563.2z M1717.8,1563.3c0-11.7-2.6-17-7.4-17s-7.5,5.3-7.5,17c0,11.7,2.7,17.2,7.5,17.2
			S1717.8,1575,1717.8,1563.3z"/>
		<path class="st0" d="M1776.2,1579.8v2l-14.8,0.9l-0.3-6.7c-3.1,3.9-7.5,6.9-12.4,6.9c-6.7,0-10.9-3.6-10.8-13.8l0.3-19.9l-4.7-0.9
			v-1.8l14.9-2l0.9,0.7l-0.4,10.9v14.1c0,5.4,2.1,7,5.3,7c2.5,0,5-1.3,6.9-3.2l0.3-24.8l-4.5-0.9v-1.5l14.6-2.3l0.9,0.7l-0.3,10.9
			v23.5L1776.2,1579.8z"/>
		<path class="st0" d="M1805.4,1577.3c-2,3.6-5.4,5.6-10.5,5.6c-6.8,0-10.5-3.1-10.5-10.5c0-2.5,0.1-4.5,0.1-7.3v-17.2h-5.4v-2.1
			l6-0.7l3.5-10.7h6.9l-0.1,10.8h8.3v2.8h-8.3v25.4c0,3.6,1.7,5.2,4.4,5.2c1.7,0,2.8-0.7,4.6-2.1L1805.4,1577.3z"/>
		<path class="st0" d="M1849.1,1577.3c-2,3.6-5.4,5.6-10.5,5.6c-6.8,0-10.5-3.1-10.5-10.5c0-2.5,0.1-4.5,0.1-7.3v-17.2h-5.4v-2.1
			l6-0.7l3.5-10.7h6.9l-0.1,10.8h8.3v2.8h-8.3v25.4c0,3.6,1.7,5.2,4.4,5.2c1.7,0,2.8-0.7,4.6-2.1L1849.1,1577.3z"/>
		<path class="st0" d="M1851,1563.2c0-11.9,8.5-19.3,19-19.3c10.6,0,19.1,7.2,19.1,19.3c0,12-7.6,19.7-19.1,19.7
			C1858.6,1582.9,1851,1575,1851,1563.2z M1877.5,1563.3c0-11.7-2.6-17-7.4-17s-7.5,5.3-7.5,17c0,11.7,2.7,17.2,7.5,17.2
			S1877.5,1575,1877.5,1563.3z"/>
		<path class="st0" d="M1950.5,1547.1l-4.6,0.7l-11.9,34.1h-4.6c-5.2-14.5-7.6-21.3-9.2-26.6l-9.5,26.6h-4.6l-12.3-34.3l-3.6-0.4v-2
			h19.8v2l-5.2,0.5l7.5,24.5l7.9-24.4l-5.2-0.5v-2h17.5v2l-5.2,0.6l8.2,23.9l7.1-23.9l-6-0.7v-2h13.8V1547.1z"/>
		<path class="st0" d="M1985.6,1573.8c-2.8,5.8-8.1,9.1-15,9.1c-11.1,0-19.3-7-19.3-19.6c0-12.6,9.6-19.3,19.2-19.3
			c10.1,0,15.5,6.8,15.5,15.3c0,1.7-0.1,2.8-0.4,4.1h-22.8c0.3,10.5,5.4,14.8,11.7,14.8c4.7,0,7.6-2,9.8-5.1L1985.6,1573.8z
			 M1971.9,1560.9c3.2,0,4-1.5,4-5.7c0-5.8-2.5-8.9-6.1-8.9c-3.7,0-6.7,4.2-7,14.6L1971.9,1560.9z"/>
		<path class="st0" d="M2009.6,1579.6v2.1h-20.3v-2.1l4.6-0.4c0.1-4.4,0.1-9.2,0.1-13.5v-34.3l-4.9-0.5v-1.7l15-2.9l0.9,0.6
			l-0.3,10.8v28c0,4.4,0.1,9.1,0.2,13.5L2009.6,1579.6z"/>
	</g>
</g>
<g>
	<g>
		<path class="st0" d="M3023.7,580.5l-4.6,0.7l-11.9,34.1h-4.6c-5.2-14.5-7.6-21.3-9.2-26.6l-9.5,26.6h-4.6l-12.3-34.3l-3.6-0.4v-2
			h19.8v2l-5.2,0.5l7.5,24.5l7.9-24.4l-5.2-0.5v-2h17.5v2l-5.2,0.6l8.2,23.9l7.1-23.9l-6-0.7v-2h13.8V580.5z"/>
		<path class="st0" d="M3062.4,611c-1.7,3.7-4.2,5.2-8.5,5.2c-4.4,0-6.9-2.2-7.9-5.8c-3.4,3.8-6,5.8-11.3,5.8
			c-5.8,0-9.8-3.5-9.8-9.1c0-6.1,3.5-9.4,14.3-12.5c1.9-0.5,4.2-1.1,6.6-1.7v-4.1c0-7-1.6-9.1-6.7-9.1c-0.9,0-1.8,0.1-2.8,0.3
			l-0.5,4.8c-0.2,4.6-2.5,6.4-5,6.4c-2.4,0-4.1-1.2-4.6-3.4c0.5-6.3,6.4-10.3,16.8-10.3c9.5,0,13.3,4.1,13.3,13.8v18
			c0,2.5,0.8,3.4,2.1,3.4c1,0,1.7-0.5,3-2.5L3062.4,611z M3032.4,580.9l-1.1,0.4L3032.4,580.9z M3045.7,594.7
			c-1.5,0.4-2.9,0.8-3.7,1.1c-4.7,1.9-7.2,5.1-7.2,10c0,4,1.9,5.9,5,5.9c1.8,0,3.4-0.9,5.8-3.1V594.7z"/>
		<path class="st0" d="M3084.6,592.6c7,2.1,10.1,5.8,10.1,11.3c0,7.8-6.2,12.3-16.4,12.3c-5.2,0-9.3-1.1-13.3-3.4l0.5-9.1h4.3
			l2.1,8.9c1.7,0.7,3.4,1,5.5,1c5.1,0,7.9-1.8,7.9-5.5c0-2.8-1.3-4.8-6.6-6.5l-3.9-1.1c-6-1.9-9.6-5.3-9.6-11
			c0-7,5.5-12.1,15.4-12.1c4.5,0,7.9,1.1,11.9,3l-0.5,8.5h-3.8l-2.5-7.9c-1.4-0.7-2.8-1-4.8-1c-4.1,0-6.8,2.1-6.8,5.4
			c0,2.5,1.3,4.5,6.6,6.1L3084.6,592.6z"/>
		<path class="st0" d="M3140.6,613v2.1h-19.5V613l4.3-0.4c0.1-3.9,0.1-9.6,0.1-13.5v-9.7c0-5.2-1.9-7.1-4.9-7.1
			c-2.1,0-4.8,1.1-7.5,3.6v13.1c0,3.8,0.1,9.6,0.1,13.6l3.9,0.3v2.1h-19.4V613l4.4-0.4c0.1-4,0.1-9.7,0.1-13.5v-34.3l-4.9-0.5v-1.7
			l14.8-2.9l0.9,0.6l-0.2,10.8v13c4-4.8,7.4-6.8,12.5-6.8c6.5,0,10.9,4,10.9,13.1v8.7c0,4,0.1,9.7,0.1,13.6L3140.6,613z"/>
		<path class="st0" d="M3164.4,613v2.1h-19.6V613l4.4-0.4c0.1-4,0.1-9.7,0.1-13.5v-5.4c0-4.3-0.1-6.8-0.2-10.2l-5-0.5v-1.6l15.4-4
			l0.9,0.7l-0.3,10.7v10.3c0,3.8,0.1,9.6,0.1,13.5L3164.4,613z M3148.8,565.3c0-3.2,2.6-5.5,5.8-5.5c3.2,0,5.8,2.3,5.8,5.5
			c0,3.2-2.6,5.4-5.8,5.4C3151.4,570.7,3148.8,568.4,3148.8,565.3z"/>
		<path class="st0" d="M3211.4,613v2.1h-19.5V613l4.2-0.4c0.1-3.9,0.1-9.6,0.1-13.5v-9.7c0-5.2-1.5-7.1-4.6-7.1
			c-2,0-4.8,1.3-7.6,3.8v12.9c0,3.8,0.1,9.6,0.1,13.6l3.8,0.3v2.1h-19.4V613l4.5-0.4c0.1-4,0.1-9.7,0.1-13.5v-5.6
			c0-4.4-0.1-6.6-0.2-9.8l-5-0.5v-1.6l14.6-4.2l0.9,0.7l0.4,5.9c4.4-5.1,8.1-6.6,12.5-6.6c6.4,0,10.7,4.2,10.7,12.9v8.9
			c0,4,0.1,9.7,0.2,13.6L3211.4,613z"/>
		<path class="st0" d="M3253.1,583.3l-8.1-0.9c1.5,2,2.3,4.5,2.3,7.3c0,7-5,12.6-15.5,12.6c-3.2,0-6-0.5-8.2-1.5
			c-0.7,1.2-1.1,2.3-1.1,3.8c0,2.5,1.5,3.8,5.3,3.8h9.9c10.8,0,14.8,4.2,14.8,10.2c0,7.5-7.4,13.8-21.5,13.8
			c-12.2,0-16.2-4.2-16.2-9.1c0-3,2.2-5.6,6.7-7.3c-3-1.3-4.9-3.1-4.9-6.4s1.7-5.8,5.8-9.4c-4.1-2.2-6-6-6-10.5
			c0-7.2,5-12.4,15.6-12.4c5.2,0,8.9,1.3,11.5,3.4l8.6-3.4l1.2,0.7V583.3z M3230.6,617.5c-4,0-5.8-0.1-8-0.7c-1.1,1.5-1.7,3-1.7,5.2
			c0,4.9,3.7,7.6,9.8,7.6c8.9,0,13.1-2.8,13.1-6.6c0-2.9-1.5-5.4-5.8-5.4H3230.6z M3237.8,589.8c0-6.6-2.2-10.4-5.9-10.4
			c-3.8,0-5.9,3.9-5.9,10.4c0,6.5,1.9,10.5,5.8,10.5C3235.6,600.3,3237.8,596.3,3237.8,589.8z"/>
		<path class="st0" d="M3298,610.7c-2,3.6-5.4,5.6-10.5,5.6c-6.8,0-10.5-3.1-10.5-10.5c0-2.5,0.1-4.5,0.1-7.3v-17.2h-5.4v-2.1l6-0.7
			l3.5-10.7h6.9l-0.1,10.8h8.3v2.8h-8.3v25.4c0,3.6,1.7,5.2,4.4,5.2c1.7,0,2.8-0.7,4.6-2.1L3298,610.7z"/>
		<path class="st0" d="M3319.9,613v2.1h-19.6V613l4.4-0.4c0.1-4,0.1-9.7,0.1-13.5v-5.4c0-4.3-0.1-6.8-0.2-10.2l-5-0.5v-1.6l15.4-4
			l0.9,0.7l-0.3,10.7v10.3c0,3.8,0.1,9.6,0.1,13.5L3319.9,613z M3304.2,565.3c0-3.2,2.6-5.5,5.8-5.5c3.2,0,5.8,2.3,5.8,5.5
			c0,3.2-2.6,5.4-5.8,5.4C3306.9,570.7,3304.2,568.4,3304.2,565.3z"/>
		<path class="st0" d="M3339.1,582.4c3.2-3.5,7.1-5,11.5-5c8.2,0,14.7,6.8,14.7,19.3c0,12.2-7.4,19.7-16.3,19.7
			c-3.7,0-7-1.3-9.9-4.6v4c0,4,0.1,9.1,0.1,14.4l5.2,0.6v1.9h-20.6v-1.9l4.5-0.5c0.1-5.3,0.1-10.4,0.1-14.5v-21.9
			c0-4.4-0.1-6.6-0.2-9.9l-5-0.5v-1.6l14.4-4.2l0.9,0.7L3339.1,582.4z M3339.4,609.8c1.7,1.3,3.4,1.7,5.6,1.7
			c5.2,0,8.9-3.6,8.9-14.8c0-10.9-3.2-14.7-8.5-14.7c-2,0-3.8,0.3-6,2.3V609.8z"/>
	</g>
</g>
<g>
	<path class="st0" d="M1814.8,233c0,0,4.7-60.4,36.3-63.2c21.4-1.9,36.3,21.8,36.3,21.8s0,21.7-23.9,34.2
		c-23.9,12.4-28.3,7.1-28.3,7.1s23-30.4,23.6-44.1c0.6-13.7-9.9-18.6-17.1-11.5s-16.2,12.4-22.4,55.3L1814.8,233z"/>
	<path class="st0" d="M1811.1,233c0,0-4.7-60.4-36.3-63.2c-21.4-1.9-36.3,21.8-36.3,21.8s0,21.7,23.9,34.2
		c23.9,12.4,28.3,7.1,28.3,7.1s-23-30.4-23.6-44.1c-0.6-13.7,9.9-18.6,17.1-11.5s16.2,12.4,22.4,55.3L1811.1,233z"/>
	<path class="st0" d="M1726.8,295.4c-5.1,0-9.3,4.2-9.3,9.3v120.9c0,5.1,4.2,9.3,9.3,9.3h71.7V295.4H1726.8z"/>
	<path class="st0" d="M1899.1,434.9c5.1,0,9.3-4.2,9.3-9.3V304.7c0-5.1-4.2-9.3-9.3-9.3h-71.7v139.5H1899.1z"/>
	<path class="st0" d="M1716.4,239.5c-5.8,0-10.5,4.7-10.5,10.5V277c0,5.8,4.7,10.5,10.5,10.5h82v-48H1716.4z"/>
	<path class="st0" d="M1909.5,239.5h-82v48h82c5.8,0,10.5-4.7,10.5-10.5v-26.9C1920,244.2,1915.3,239.5,1909.5,239.5z"/>
</g>
<g>
	<g>
		<path class="st0" d="M3104.5,193.5v14.4c0,1.5-1.3,2.8-2.8,2.8c-1.5,0-2.8-1.3-2.8-2.8v-14.1c-5.5,1.5-9.5,6.5-9.5,12.5
			c0,7.1,5.8,12.9,12.9,12.9c7.1,0,12.9-5.8,12.9-12.9C3115.2,199.9,3110.6,194.6,3104.5,193.5z"/>
		<path class="st0" d="M3277.5,237.4v-50c0-5.6-4.5-10.1-10.1-10.1h-75.3v60.2H3277.5z M3212.1,192.3h46c1.5,0,2.8,1.3,2.8,2.8
			s-1.3,2.8-2.8,2.8h-46c-1.5,0-2.8-1.3-2.8-2.8S3210.5,192.3,3212.1,192.3z M3212.1,209.1h46c1.5,0,2.8,1.3,2.8,2.8
			s-1.3,2.8-2.8,2.8h-46c-1.5,0-2.8-1.3-2.8-2.8S3210.5,209.1,3212.1,209.1z"/>
		<path class="st0" d="M3065,447.1c0,5.6,4.5,10.1,10.1,10.1h192.2c5.6,0,10.1-4.5,10.1-10.1V243H3065V447.1z M3175,273
			c36.8,1.9,66.7,31.8,68.6,68.6c2.2,43-33.1,78.3-76.2,76.2c-36.8-1.9-66.7-31.8-68.6-68.6C3096.7,306.2,3132,270.9,3175,273z"/>
		<path class="st0" d="M3171.3,406.4c17.2,0,32.6-7.1,43.7-18.5c0.3-0.3,0.6-0.6,0.9-1c2.7-2.9,1.8-7.5-1.7-9.2l-11.5-5.6
			c-2-1-3.3-3-3.3-5.2v-11v-28.2c0-2.4,1.5-4.6,3.8-5.4l13.8-5.2c3.6-1.4,5-5.9,2.6-8.9c-11.2-14.4-28.6-23.6-48.2-23.6
			c-33.7,0-61,27.3-61,61c0,0.7,0,1.4,0.1,2.1C3111.5,380.3,3138.3,406.4,3171.3,406.4z M3115.9,344.3c6.8-3.7,17.1-8.2,29.5-10
			c22.8-3.3,22,13.7,36.9,20.3c0,0,3.2,1.4,7.9,1.9c2.1,0.2,3.6,1.9,3.6,4v10.1c0,2.1,1.2,4.1,3.2,5l14.8,7.1l0.3,0.1
			c-0.3,0.4-0.7,0.7-1.1,1.1c-12.9,13.2-31.1,19.2-49.9,15.9c-25.6-4.5-44.3-26.8-45.2-52.8l0-0.1c0-0.5,0-1.1,0-1.6
			C3115.9,345,3115.9,344.6,3115.9,344.3z"/>
		<path class="st0" d="M3186.5,177.3h-111.3c-5.6,0-10.1,4.5-10.1,10.1v50h121.5V177.3z M3102.3,224.8c-10.2,0-18.5-8.3-18.5-18.5
			s8.3-18.5,18.5-18.5c10.2,0,18.5,8.3,18.5,18.5S3112.5,224.8,3102.3,224.8z"/>
	</g>
</g>
<g>
	<path class="st0" d="M533.1,1135.8H367.5c-30.2,0-55,24.7-55,55v21.7c0,29.8,24,54.2,53.7,54.9l51.2,51.2v-51.1h115.8
		c30.2,0,55-24.7,55-55v-21.7C588.1,1160.5,563.4,1135.8,533.1,1135.8z M403.6,1217.4c-8.7,0-15.7-7-15.7-15.7
		c0-8.7,7-15.7,15.7-15.7c8.7,0,15.7,7,15.7,15.7C419.2,1210.4,412.2,1217.4,403.6,1217.4z M450.3,1217.4c-8.7,0-15.7-7-15.7-15.7
		c0-8.7,7-15.7,15.7-15.7s15.7,7,15.7,15.7C466,1210.4,458.9,1217.4,450.3,1217.4z M497,1217.4c-8.7,0-15.7-7-15.7-15.7
		c0-8.7,7-15.7,15.7-15.7c8.7,0,15.7,7,15.7,15.7C512.7,1210.4,505.7,1217.4,497,1217.4z"/>
	<path class="st0" d="M582.1,1348.6v55.4c0,0-27-6.1-78.1,13.6s-68.8,28.2-81.6,26.1c-12.8-2-90.3-33.4-90.3-33.4s-13.9-7-8.4-16.3
		c5.5-9.3,16-6.1,31.4-0.6s60.2,20.3,60.2,20.3l53-24.4l23.8-1.2c0,0-37.4-7.8-50.2-9.6c-12.8-1.7-47-5.2-49.6-15.4
		c-2.6-10.2,2.9-20.6,19.7-18s20.9,6.4,56.9-2.9s62.1-5.5,74.9,0S559.8,1350.6,582.1,1348.6z"/>
	<path class="st0" d="M420.6,1405.7l15.5-6.7c0,0-28.5-19.6-31.3-21.3c-2.8-1.7-9.6-4.3-14.1,0s-2.6,7.8-2.6,7.8L420.6,1405.7z"/>
	<path class="st0" d="M417.4,1407.8l-50.5-30.6c0,0-8.9-4.5-13.6-0.3c-4.6,4.2-6.5,9.9,0,12.3c6.5,2.4,53.1,18.5,56.5,19
		C413.2,1408.7,417.4,1407.8,417.4,1407.8z"/>
</g>
<g>
	<path class="st0" d="M3166.8,1282.9h107.1c0.4,0,0.7-0.3,0.7-0.7v-41.8c0-0.4-0.3-0.7-0.7-0.7h-107.1c-0.4,0-0.7,0.3-0.7,0.7v41.8
		C3166.1,1282.5,3166.4,1282.9,3166.8,1282.9z"/>
	<path class="st0" d="M3166.5,1348.3h50c0.4,0,0.7-0.3,0.7-0.7v-26.9c0-0.4-0.3-0.7-0.7-0.7h-50c-0.4,0-0.7,0.3-0.7,0.7v26.9
		C3165.8,1348,3166.1,1348.3,3166.5,1348.3z"/>
	<path class="st0" d="M3209.3,1195.3v-45.5c0-0.8-0.1-1.6-0.3-2.3l-57.7,47.8H3209.3z"/>
	<path class="st0" d="M3138.8,1209.7v214.1c0,4.9,3.9,8.8,8.8,8.8h144.5c4.9,0,8.8-3.9,8.8-8.8v-214.1c0-4.9-3.9-8.8-8.8-8.8h-144.5
		c-1.8,0-3.4,0.5-4.8,1.5l-1.5,1.2C3139.8,1205.1,3138.8,1207.3,3138.8,1209.7z M3223.2,1399.3c0,3.5-2.8,6.3-6.3,6.3h-50
		c-3.5,0-6.3-2.8-6.3-6.3v-26.9c0-3.5,2.8-6.3,6.3-6.3h50c3.5,0,6.3,2.8,6.3,6.3V1399.3z M3244.4,1331.3h32.7c1.5,0,2.8,1.3,2.8,2.8
		c0,1.5-1.3,2.8-2.8,2.8h-32.7c-1.5,0-2.8-1.3-2.8-2.8C3241.6,1332.6,3242.9,1331.3,3244.4,1331.3z M3241.6,1320.4
		c0-1.5,1.3-2.8,2.8-2.8h32.7c1.5,0,2.8,1.3,2.8,2.8s-1.3,2.8-2.8,2.8h-32.7C3242.9,1323.2,3241.6,1322,3241.6,1320.4z M3244.4,1345
		h32.7c1.5,0,2.8,1.3,2.8,2.8s-1.3,2.8-2.8,2.8h-32.7c-1.5,0-2.8-1.3-2.8-2.8S3242.9,1345,3244.4,1345z M3277.4,1402.3h-32.7
		c-1.5,0-2.8-1.3-2.8-2.8c0-1.5,1.3-2.8,2.8-2.8h32.7c1.5,0,2.8,1.3,2.8,2.8C3280.2,1401.1,3279,1402.3,3277.4,1402.3z
		 M3277.4,1388.7h-32.7c-1.5,0-2.8-1.3-2.8-2.8s1.3-2.8,2.8-2.8h32.7c1.5,0,2.8,1.3,2.8,2.8S3279,1388.7,3277.4,1388.7z
		 M3277.4,1375h-32.7c-1.5,0-2.8-1.3-2.8-2.8c0-1.5,1.3-2.8,2.8-2.8h32.7c1.5,0,2.8,1.3,2.8,2.8
		C3280.2,1373.8,3279,1375,3277.4,1375z M3160.5,1240.3c0-3.5,2.8-6.3,6.3-6.3h107.1c3.5,0,6.3,2.8,6.3,6.3v41.8
		c0,3.5-2.8,6.3-6.3,6.3h-107.1c-3.5,0-6.3-2.8-6.3-6.3V1240.3z M3160.2,1320.7c0-3.5,2.8-6.3,6.3-6.3h50c3.5,0,6.3,2.8,6.3,6.3
		v26.9c0,3.5-2.8,6.3-6.3,6.3h-50c-3.5,0-6.3-2.8-6.3-6.3V1320.7z"/>
	<path class="st0" d="M3216.8,1371.7h-50c-0.4,0-0.7,0.3-0.7,0.7v26.9c0,0.4,0.3,0.7,0.7,0.7h50c0.4,0,0.7-0.3,0.7-0.7v-26.9
		C3217.6,1372,3217.2,1371.7,3216.8,1371.7z"/>
	<path class="st0" d="M3139.5,1197.8l66.8-55.3c-1.8-1.8-4.3-2.9-7.1-2.9h-147.4c-5.6,0-10.1,4.5-10.1,10.1v217
		c0,5.6,4.5,10.1,10.1,10.1h81.5v-167.3C3133.2,1204.7,3135.7,1200.4,3139.5,1197.8z M3110.5,1333.2h-46c-1.5,0-2.8-1.3-2.8-2.8
		c0-1.5,1.3-2.8,2.8-2.8h46c1.5,0,2.8,1.3,2.8,2.8C3113.3,1331.9,3112.1,1333.2,3110.5,1333.2z M3110.5,1300h-46
		c-1.5,0-2.8-1.3-2.8-2.8s1.3-2.8,2.8-2.8h46c1.5,0,2.8,1.3,2.8,2.8S3112.1,1300,3110.5,1300z M3110.5,1266.9h-46
		c-1.5,0-2.8-1.3-2.8-2.8c0-1.5,1.3-2.8,2.8-2.8h46c1.5,0,2.8,1.3,2.8,2.8C3113.3,1265.7,3112.1,1266.9,3110.5,1266.9z
		 M3110.5,1233.8h-46c-1.5,0-2.8-1.3-2.8-2.8s1.3-2.8,2.8-2.8h46c1.5,0,2.8,1.3,2.8,2.8S3112.1,1233.8,3110.5,1233.8z"/>
	<path class="st0" d="M3141.3,1203.5l1.5-1.2C3142.2,1202.7,3141.8,1203.1,3141.3,1203.5z"/>
</g>
<g>
	<g>
		<path class="st0" d="M337,582.4c3.2-3.5,7.1-5,11.5-5c8.2,0,14.7,6.8,14.7,19.3c0,12.2-7.4,19.7-16.3,19.7c-3.7,0-7-1.3-9.9-4.6v4
			c0,4,0.1,9.1,0.1,14.4l5.2,0.6v1.9h-20.6v-1.9l4.5-0.5c0.1-5.3,0.1-10.4,0.1-14.5v-21.9c0-4.4-0.1-6.6-0.2-9.9l-5-0.5v-1.6
			l14.4-4.2l0.9,0.7L337,582.4z M337.2,609.8c1.7,1.3,3.4,1.7,5.6,1.7c5.2,0,8.9-3.6,8.9-14.8c0-10.9-3.2-14.7-8.5-14.7
			c-2,0-3.8,0.3-6,2.3V609.8z"/>
		<path class="st0" d="M383.2,587.7c2-6.8,6.6-10.3,10.6-10.3c3.2,0,5.8,1.3,6.5,5.3c-0.3,3-1.6,5.4-5,5.4c-2.5,0-4.2-1.6-6-4
			l-0.6-0.8c-2.7,2.5-4.3,5.4-5.6,10.3v5.6c0,3.7,0.1,9.3,0.1,13.3l6.2,0.6v2.1h-21.8V613l4.6-0.5c0.1-3.9,0.1-9.7,0.1-13.4v-5.6
			c0-4.4-0.1-6.6-0.2-9.8l-5-0.5v-1.6l14.6-4.2l0.9,0.7L383.2,587.7z"/>
		<path class="st0" d="M401.4,596.6c0-11.9,8.5-19.3,19-19.3c10.6,0,19.1,7.2,19.1,19.3c0,12-7.6,19.7-19.1,19.7
			C408.9,616.3,401.4,608.4,401.4,596.6z M427.9,596.7c0-11.7-2.6-17-7.4-17c-4.8,0-7.5,5.3-7.5,17c0,11.7,2.7,17.2,7.5,17.2
			C425.2,613.9,427.9,608.4,427.9,596.7z"/>
		<path class="st0" d="M468.3,579.8c-0.7-0.1-1.3-0.1-1.9-0.1c-6,0-10.3,5.8-10.3,16.1c0,10,4.9,15.7,12.1,15.7
			c3.9,0,6.8-1.7,9.2-4.8l1.3,0.9c-3.1,5.6-8,8.7-15.3,8.7c-10.2,0-18.7-6.9-18.7-19.4c0-12.5,9.1-19.5,20.3-19.5
			c7.6,0,12.9,4.6,13.8,10.7c-0.7,2.4-2.1,3.6-4.4,3.6c-2.8,0-5.2-1.6-5.4-6.6L468.3,579.8z"/>
		<path class="st0" d="M517.2,607.2c-2.8,5.8-8.1,9.1-15,9.1c-11.1,0-19.3-7-19.3-19.6c0-12.6,9.6-19.3,19.2-19.3
			c10.1,0,15.5,6.8,15.5,15.3c0,1.7-0.1,2.8-0.4,4.1h-22.8c0.3,10.5,5.4,14.8,11.7,14.8c4.7,0,7.6-2,9.8-5.1L517.2,607.2z
			 M503.6,594.3c3.2,0,4-1.5,4-5.7c0-5.8-2.5-8.9-6.1-8.9c-3.7,0-6.7,4.2-7,14.6L503.6,594.3z"/>
		<path class="st0" d="M542.2,592.6c7,2.1,10.1,5.8,10.1,11.3c0,7.8-6.2,12.3-16.4,12.3c-5.2,0-9.3-1.1-13.3-3.4l0.5-9.1h4.3
			l2.1,8.9c1.7,0.7,3.4,1,5.5,1c5.1,0,7.9-1.8,7.9-5.5c0-2.8-1.3-4.8-6.6-6.5l-3.9-1.1c-6-1.9-9.6-5.3-9.6-11
			c0-7,5.5-12.1,15.4-12.1c4.5,0,7.9,1.1,11.9,3l-0.5,8.5h-3.8l-2.5-7.9c-1.4-0.7-2.8-1-4.8-1c-4.1,0-6.8,2.1-6.8,5.4
			c0,2.5,1.3,4.5,6.6,6.1L542.2,592.6z"/>
		<path class="st0" d="M576.5,592.6c7,2.1,10.1,5.8,10.1,11.3c0,7.8-6.2,12.3-16.4,12.3c-5.2,0-9.3-1.1-13.3-3.4l0.5-9.1h4.3
			l2.1,8.9c1.7,0.7,3.4,1,5.5,1c5.1,0,7.9-1.8,7.9-5.5c0-2.8-1.3-4.8-6.6-6.5l-3.9-1.1c-6-1.9-9.6-5.3-9.6-11
			c0-7,5.5-12.1,15.4-12.1c4.5,0,7.9,1.1,11.9,3l-0.5,8.5h-3.8l-2.5-7.9c-1.4-0.7-2.8-1-4.8-1c-4.1,0-6.8,2.1-6.8,5.4
			c0,2.5,1.3,4.5,6.6,6.1L576.5,592.6z"/>
	</g>
</g>
<g>
	<g>
		<path class="st0" d="M450.3,391.9v-74.7l-0.3-0.2l65.3-28.4l13.2,7.1v-63.9c0-2.3-1.8-4.1-4.1-4.1h-24.7v8.9
			c0,4.6-3.7,8.3-8.3,8.3h-97.6c-4.6,0-8.3-3.7-8.3-8.3v-8.9H361c-2.3,0-4.1,1.8-4.1,4.1v215.5c0,2.3,1.8,4.1,4.1,4.1h163.4
			c2.3,0,4.1-1.8,4.1-4.1v-29l-15.8,6.9L450.3,391.9z M421,394.1l-24.1,24.5L381,400.1c-1.2-1.5-1.1-3.6,0.4-4.9
			c1.5-1.2,3.6-1.1,4.9,0.4l10.9,12.7l18.8-19.1c1.3-1.4,3.5-1.4,4.9,0C422.3,390.5,422.3,392.7,421,394.1z M421,358.2l-24.1,24.5
			L381,364.2c-1.2-1.5-1.1-3.6,0.4-4.9c1.5-1.2,3.6-1.1,4.9,0.4l10.9,12.7l18.8-19.1c1.3-1.4,3.5-1.4,4.9,0
			C422.3,354.7,422.3,356.9,421,358.2z M421,322.3l-24.1,24.5L381,328.4c-1.2-1.5-1.1-3.6,0.4-4.9c1.5-1.2,3.6-1.1,4.9,0.4
			l10.9,12.7l18.8-19.1c1.3-1.4,3.5-1.4,4.9,0C422.3,318.8,422.3,321,421,322.3z M421,286.5L396.9,311L381,292.5
			c-1.2-1.5-1.1-3.6,0.4-4.9c1.5-1.2,3.6-1.1,4.9,0.4l10.9,12.7l18.8-19.1c1.3-1.4,3.5-1.4,4.9,0C422.3,282.9,422.3,285.1,421,286.5
			z"/>
	</g>
	<g>
		<path class="st0" d="M524.4,222.5c5.1,0,9.3,4.2,9.3,9.3v66.7l7.9,4.2v-74.3c0-8.3-6.7-14.9-14.9-14.9h-27v9.1H524.4z"/>
	</g>
	<g>
		<path class="st0" d="M533.7,447.4c0,5.1-4.2,9.3-9.3,9.3H361c-5.1,0-9.3-4.2-9.3-9.3V231.8c0-5.1,4.2-9.3,9.3-9.3h24.7v-9.1h-27
			c-8.3,0-14.9,6.7-14.9,14.9v222.4c0,8.3,6.7,14.9,14.9,14.9h168c8.3,0,14.9-6.7,14.9-14.9v-38.2l-7.9,3.4V447.4z"/>
	</g>
	<g>
		<path class="st0" d="M491.4,201.9h-97.6c-1.7,0-3.1,1.4-3.1,3.1v8.5v9.1v5.2v8.9c0,1.7,1.4,3.1,3.1,3.1h97.6
			c1.7,0,3.1-1.4,3.1-3.1v-8.9v-5.2v-9.1V205C494.5,203.3,493.1,201.9,491.4,201.9z"/>
	</g>
	<g>
		<polygon class="st0" points="541.6,309.8 533.7,305.6 528.5,302.8 515,295.6 464.4,317.6 513,343.6 528.5,336.9 533.7,334.6 
			541.6,331.2 563.6,321.6 		"/>
	</g>
	<g>
		<polygon class="st0" points="541.6,338 533.7,341.5 528.5,343.7 516,349.1 516,416.9 528.5,411.5 533.7,409.2 541.6,405.8 
			571.5,392.8 571.5,325.1 		"/>
	</g>
	<g>
		<polygon class="st0" points="456.6,388.1 509.7,416.5 509.7,348.9 456.6,320.5 		"/>
	</g>
</g>
</svg>
